<?xml version="1.0" encoding="UTF-8"?> <svg xmlns="http://www.w3.org/2000/svg" xmlns:xlink="http://www.w3.org/1999/xlink" id="Layer_1" x="0px" y="0px" width="600px" height="313px" viewBox="0 0 724.1 440.5" style="enable-background:new 0 0 724.1 440.5;" xml:space="preserve"> <style type="text/css"> .st0{stroke:#000000;stroke-miterlimit:10;} </style> <path d="M582.7,321.7c0,4.3-2.5,7-6.8,7c-4.3,0-7-3.2-7-8.2c0-1,2.9-5.4,7-5.4C580.3,315,582.7,317.9,582.7,321.7 M584,304.5 c-1.9-1.5-4.2-2.3-6.6-2.3c-7.9,0-11.1,8.3-11.1,15.3c0,6.4,1.8,13.3,9.6,13.3c5.1,0,9.4-3.3,9.4-8.6c0-5.2-3.3-9.2-9-9.2 c-2.9,0-5.6,1.6-7.5,3.7c0-5.3,2.2-12.4,8.5-12.4c2.1,0,4.1,0.5,5.5,2.1L584,304.5z M546.3,309.1c0-3.3,2.5-4.9,6.2-4.9 c3.6,0,6.2,1.6,6.2,4.9c0,3-2.7,4.7-6.2,5.6C549,313.8,546.3,312.1,546.3,309.1z M545.2,323.2c0-3,2.7-4.6,7.3-6.4 c4.6,1.9,7.3,3.4,7.3,6.4c0,3.8-3.2,5.5-7.3,5.5C548.3,328.7,545.2,327,545.2,323.2z M552.4,302.2c-5.3,0-8.7,2.4-8.7,7.1 c0,3.1,1.8,5.3,5.3,6.5c-4.8,2.2-6.4,4.7-6.4,7.5c0,5.6,4,7.6,9.8,7.6c5.8,0,9.8-2,9.8-7.6c0-2.8-1.6-5.3-6.4-7.5 c3.5-1.2,5.3-3.5,5.3-6.5C561.2,304.5,557.7,302.2,552.4,302.2z M519.1,325.2c1.6,3.8,4.9,5.5,9.4,5.5c5.5,0,9.5-2.4,9.5-8.3 c0-3.8-2.2-5.9-5.3-7c3.2-1.5,4.5-3.4,4.5-6.6c0-5.2-4.8-6.8-8.4-6.8c-3,0-5.8,1.2-8.4,4.4l1.8,1.3c1.9-2.4,3.8-3.6,6.4-3.6 c3.7,0,6.1,1.5,6.1,4.9c0,3.7-2.6,5.4-7.6,5.4h-2.1v2.1h2.5c5.3,0,8,1.9,8,6c0,3.9-2.2,6.1-6.9,6.1c-3.6,0-5.8-1.1-7.5-4.6 L519.1,325.2z M516.4,330.4v-2.1h-4.6v-26.2h-1.6l-6.3,2v1.5l5.3-0.8v23.4h-4.8v2.1H516.4z M471.5,304.6h8.3v25.8h2.5v-25.8h8.3 v-2.1h-19.1V304.6z M463.6,330.4h2.5v-27.9h-2.5V330.4z M458.6,330.4v-2.1h-14.1V317h9.6v-2.1h-9.6v-10.3h13.4v-2.1h-15.9v27.9 H458.6z M417.8,323.3c1.5,5.1,4.6,7.4,9.9,7.4c4.5,0,8.5-2.6,8.5-7.4c0-4-1.6-5.9-9.4-8.9c-5.1-1.9-5.7-3.3-5.7-5.2 c0-3.3,2.2-5.1,5.5-5.1c3.6,0,5.7,2.2,6.7,5.3l2.2-0.7c-1.3-4.3-4.5-6.7-8.9-6.7c-5.2,0-8,3.1-8,7.2c0,9.2,15.1,6.3,15.1,13.8 c0,3.4-2.1,5.6-5.6,5.6c-4.4,0-6.9-1.9-8-6.1L417.8,323.3z"></path> <path d="M568,264.1h8.3v25.8h2.5v-25.8h8.3V262H568 M551.7,289.9v-13.4h10.1v-2.1h-10.1v-10.3h13.8V262h-16.4v27.9H551.7z M521.3,289.9h2.6v-25.8h0.1l14.9,25.8h2.6V262h-2.5v23.2h-0.1L525.6,262h-4.3V289.9z M493.4,262v18.8c0,6.3,3.3,9.5,10.1,9.5 c6.8,0,10.1-3.2,10.1-9.5V262H511v19c0,5.3-2.6,7.2-7.5,7.2c-4.9,0-7.5-1.8-7.5-7.2v-19H493.4z M469.8,289.9h2.6v-9.3l5.3-6.1 l8.8,15.4h2.9l-10.1-17.2l9-10.7h-3.1l-12.7,15.1V262h-2.6V289.9z M441.9,262v18.8c0,6.3,3.3,9.5,10.1,9.5c6.8,0,10.1-3.2,10.1-9.5 V262h-2.5v19c0,5.3-2.6,7.2-7.5,7.2c-4.9,0-7.5-1.8-7.5-7.2v-19H441.9z M419.6,264.1h13.4l-14.6,23.7v2.1h17.9v-2.1h-14.8l14.6-23.6 V262h-16.5V264.1z"></path> <path d="M658.3,227.4c-1.4-4.3-4.8-7.4-10.5-7.4c-9.3,0-12.1,8-12.1,15.4c0,8.2,3.7,14.5,11.6,14.5c3.1,0,5.2-0.8,7.6-3.4v3h4v-14.7 h-10.9v4.7h5.5c-0.1,3.4-2.5,5.8-6.1,5.8c-3.9,0-6.2-3.9-6.2-10c0-6.5,2-10.6,6.1-10.6c2.9,0,4.5,1.2,5.8,4.1 M616.3,224.9h5.1 c3.1,0,4.7,1.4,4.7,4.1c0,2.8-1.3,4.1-5.7,4.1h-4.1V224.9z M616.3,249.5v-11.8h4.8l5.5,11.8h6.2l-6.4-13c3.5-1,5.4-3.9,5.3-7.5 c0-4.8-2.7-8.6-9.3-8.6h-11.6v29.1H616.3z M606,249.5v-4.7h-14.1v-8.1h10V232h-10V225h13.7v-4.7h-19.3v29.1H606z M564.8,224.9h5.6 c2.7,0,4,1.5,4,3.5c0,2-1.3,3.5-4,3.5h-5.6V224.9z M564.8,236.5h5.6c3.2,0,4.6,1.5,4.6,4.2c0,2.8-1.4,4.2-4.6,4.2h-5.6V236.5z M559.2,249.5h10.7c7.4,0,10.6-3.1,10.6-7.6c0-4.4-1.3-6.2-5.1-7.7c3.2-1.2,4.4-3.6,4.4-6.6c-0.3-5.2-4.1-7.1-9.9-7.1h-10.8V249.5z M555,249.5v-4.7h-12.7v-24.4h-5.6v29.1H555z M532.1,249.5v-4.7H518v-8.1h10V232h-10V225h13.7v-4.7h-19.3v29.1H532.1z M490.8,225 h3.7c6.4,0,7.9,4.7,7.9,9.9c0,5.2-1.5,9.9-7.9,9.9h-3.7V225z M485.3,249.5h9.6c7.7,0,13-4.3,13.1-14.5c0-10.3-5.4-14.5-13.1-14.5 h-9.6V249.5z M478.2,249.5v-29.1h-5.5v29.1H478.2z M467.2,249.5v-4.7H453v-8.1h10V232h-10V225h13.7v-4.7h-19.3v29.1H467.2z M423.9,249.5V237h11.2v12.5h5.6v-29.1h-5.6V232h-11.2v-11.6h-5.6v29.1H423.9z"></path> <path d="M642,178.7v4.7h7.6v24.4h5.5v-24.4h7.6v-4.7 M632.5,172v4.7h4.8V172H632.5z M624.8,172v4.7h4.8V172H624.8z M619.3,207.8h5.5 l1.7-6.3h9.2l1.6,6.3h5.5l-8.3-29.1h-6.9L619.3,207.8z M631.2,184.3L631.2,184.3l3.3,12.6h-6.8L631.2,184.3z M599.4,178.7v4.7h7.6 v24.4h5.6v-24.4h7.6v-4.7H599.4z M594.6,207.8v-29.1h-5.6v29.1H594.6z M582.5,184.9c-1.7-4.2-5.6-6.6-10.3-6.6c-5,0-9.4,2.9-9.4,8.1 c0,8.9,15,7.8,15,13.5c0,2.8-2.1,3.9-4.9,3.9c-3.3,0-5-1.8-6.3-4.6l-4.6,2c1.7,4.2,6.1,6.9,10.9,6.9c6.5,0,10.2-3,10.2-8.9 c0-9.4-15-8.4-15-13.4c0-2.3,1.7-3.2,4.2-3.2c2.6,0,4.4,1.5,5.2,3.8L582.5,184.9z M542.3,183.2h5.1c3.1,0,4.7,1.4,4.7,4.1 c0,2.7-1.3,4.1-5.7,4.1h-4.1V183.2z M542.3,207.8V196h4.8l5.5,11.8h6.2l-6.4-13c3.5-1,5.3-3.9,5.3-7.5c0-4.8-2.7-8.6-9.3-8.6h-11.6 v29.1H542.3z M532.1,207.8v-4.7H518V195h10v-4.7h-10v-6.9h13.7v-4.7h-19.3v29.1H532.1z M494.7,207.8h6.2l7.7-29.1h-5.5l-5.4,21.4 h-0.1l-5.2-21.4H487L494.7,207.8z M482.7,207.8v-29.1h-5.6v29.1H482.7z M452.6,207.8v-20.7h0.1l11.9,20.7h5.4v-29.1h-5.2v19.8h-0.1 l-11.5-19.8h-5.8v29.1H452.6z M435.1,197.2c0,4.7-1.9,6.4-5.6,6.4s-5.6-1.7-5.6-6.4v-18.5h-5.6V197c0,8.5,5.2,11.3,11.2,11.3 c5.9,0,11.2-2.8,11.2-11.3v-18.2h-5.6V197.2z"></path> <rect x="393.5" y="60.3" class="st0" width="1" height="319.8"></rect> <path d="M63.4,225.2l11.6-0.9l0.1,0.1l-1.3,2.4l-11,0.9l-0.5-0.6 M64,230.3c0,0,9.3-0.7,9.9-0.8c0.6,0,0.9,0.4,0.9,0.4l0.1,0 l2.2-3.9l-3.5-4.4c0,0-10.2,0.8-10.8,0.8c-0.6,0-0.8-0.3-0.8-0.3l-0.1,0c-1.7,3-3.2,5.5-5.2,8.6c0,0,1,0.5,2.4,1.9l0.1,0 c-0.1-0.7,2.7-5.1,2.7-5.1L64,230.3z M81.8,271.7c0,1.2-0.1,2.8,0.3,4.3c-1.6-1.4-3.2-1.5-5.7-1.5c0.2,1.2,0.3,2.9,0,4.1H80 c2.5,0,4.7,1.6,4.9,1.8l0.9,1.4c-0.8-0.5-1.8-0.6-3.4-0.6c0.2,1,0.2,2.4,0,3.4c0,0,3.2,0,3.2,0c1.1,0,2.1,0.6,2.7,1 c0,0.9,0,2.3,0,3.2c0,3.2,1.4,6,2.9,8.2c0.1,0.2,0.3,0.4,0.4,0.6c-1.5-1.1-2.8-0.9-5.7-0.9l-0.3-0.5l-4.9-7.3l0,0 c-0.1-0.2-0.5-1-0.5-3.1c0-2.9,0-2.8,0-3.7c-0.9,0.3-3,0.3-3.8,0c0,1.6,0,2.4,1,3.7c-0.9-0.4-2-0.5-3.4-0.5c0.2,1,0.2,2.4,0,3.4 c0,0,3.9,0,3.9,0c1.9,0,3.1,1.4,3.2,1.5l1.4,2.1c-1.4-1.1-2.8-1.3-5.1-1.3c0.2,1.2,0.3,3,0,4.2h4.4c1.4,0,2.7,0.8,3.4,1.4 c0.5,1,0.6,2.2,0.3,3.5l3.2,0.1c4.3,0,7,3.3,7.6,4.1l0.5,0.7c0.1,0.9,0.2,1.8,0.5,2.6l0,0c-2.7-3.2-4-3-9.8-3c0.2,1,0.3,2.7,0.1,3.5 c0.8,0,4.9,0,4.9,0c4.3,0,6.8,3.8,6.8,3.8l0,0c0.1,0.2,0.2,0.4,0.3,0.5c1.2,1.8,2.3,3.2,2.3,3.2l0.5-0.3c0,0-0.8-1.2-1.2-1.8 c-0.8-1.3-0.9-5.1-0.9-7.1c0-0.5,0-9.8,0-10.2v-3c-1.6,0.3-3.7-0.1-3.7-0.1s0,8.4,0,10.7l-2.7-4c0,0-0.7-1.1-1.1-1.7 c-0.8-1.3-0.8-5.3-0.9-7.3c0-0.5,0.1-0.9,0.1-1.3c0-0.9,0.1-4,1.3-4c0-0.2,0-0.4,0-0.7c-2.4,0-4,0-4.6,0l-0.1-0.2l-2.4-3.6 c0,0-0.6-1.5-0.6-3.5v-5.9C85,272.1,82.6,272.1,81.8,271.7z M62.4,244.9l2.5,1.5l0.1,0c-0.1-0.7,0.3-1.5,0.3-1.5l4.7-3.6l9.5,3.1 c0,0-1.3-2.5-1.4-3c-5.1-1.6-14.4-4.8-15.4-5.3l-0.1,0l-1.3,2.5l2.2,1.6l0.1,0c-0.1-0.5,0.5-1,0.5-1l3.5,1.1l-4.4,3.1L62.4,244.9z M73.9,235.4l1.9,2c0,0,1.4-1,2-1.9l-1.9-2C75.9,233.5,74.5,234.5,73.9,235.4z M66.6,194.1l10.6,2l0.1,0.1l-1.9,2l-10.2-1.9 l-0.2-0.4L66.6,194.1z M59.9,199.5c0.1-0.6,0.6-1.4,0.8-1.3c0,0,13.5,2.6,14.2,2.7c0.6,0.1,0.8,0.6,0.8,0.6l0.1,0l3.1-3.2l-2.2-5.2 c0,0-9.1-1.7-9.6-1.8c-0.6-0.1-0.7-0.5-0.7-0.5l-0.1,0l-2.9,3.1l1.4,2.3l-4.1-0.8l-2.4,1.7c0,0,0.7,0.8,1.6,2.5L59.9,199.5z M66.8,254l3.1-3.3c0,0,1.6,0.9,2.8,1.6L66.8,254z M73.5,252.1c-2-1-3.3-1.9-5.2-3.3l-0.1,0l-3.6,3.8c1.1,1,2.4,2.4,3.5,4 c0,0,9.2-2.7,9.8-2.9c0.6-0.2,1,0.2,1,0.2l0.1,0c0.1-1.4,0.7-3.6,1.2-5.3l-3.3-1.7l-0.2,0.5c1.2,0.5,0.8,1.5,0.3,3.7L73.5,252.1z M58.8,207.9l0.1,0c0,0,0.1-1.5,1-1.4c0.6,0.1,13.7,1.6,14.5,1.7c0.8,0.1,0.9,0.6,0.9,0.6l0.1,0l2.2-2.3l-1.8-2.3l-0.1,0 c-0.1,0.7-0.7,1.3-0.7,1.3s-14.2-1.7-14.7-1.8c-0.6-0.1-0.7-0.5-0.7-0.5l-0.1,0l-2.3,2.2C57.1,205.6,57.8,206.2,58.8,207.9z M78.9,257.2c0,0-9,3-9.5,3.1c-0.5,0.2-0.9-0.1-0.9-0.1l-0.1,0l-1,3.4l3,1.8l-4.8,1.6l-1.3,2.6c0,0,1,0.4,2.6,1.4l0.1,0 c-0.2-0.6-0.2-1.5,0-1.5c0,0,13.9-4.6,14.5-4.8c0.8-0.3,1,0.2,1,0.2l0.1,0l1-3.1l-2.6-1.3l-0.1,0c0.2,0.7-0.1,1.5-0.1,1.5l-10,3.3 l-1.1-0.7l0.5-1.7l10.3-3.4c3-1,3.5-0.9,3.5-0.9l0.1-0.2C84.2,258.5,81,256.6,78.9,257.2z M62.8,215.2l3.9-2.3c0,0,1.3,1.4,2.2,2.3 L62.8,215.2z M69.7,215.2c-1.6-1.5-2.6-2.8-4.1-4.6l-0.1,0l-4.5,2.6c0.8,1.3,1.6,3,2.3,4.8c0,0,9.6,0,10.2,0c0.6,0,0.9,0.5,0.9,0.5 h0.1c0.5-1.3,1.7-3.2,2.7-4.7l-2.7-2.6l-0.4,0.4c1,0.8,0.3,1.7-0.7,3.7H69.7z M132.2,195.3l-1.7-2.7l-1.7,2.7l1.7,2.7L132.2,195.3z M67.2,184.1l4.3-1.3c0,0,0.9,1.6,1.5,2.8L67.2,184.1z M73.9,185.8c-1.2-1.9-1.9-3.3-2.8-5.5l-0.1,0l-5.1,1.4c0.4,1.4,0.8,3.3,1,5.2 c0,0,9.3,2.4,9.9,2.6c0.6,0.2,0.7,0.7,0.7,0.7l0.1,0c0.9-1.1,2.4-2.7,3.8-3.9l-2-3.2l-0.5,0.3c0.7,1-0.1,1.7-1.6,3.3L73.9,185.8z M116.7,198l1.7-2.7l-1.7-2.7l-1.7,2.7L116.7,198z M158.1,198.1l1.7-2.7l-1.7-2.7l-1.7,2.7L158.1,198.1z M142.3,195.2l1.7,2.7 l1.7-2.7l-1.7-2.7L142.3,195.2z M97.2,146.5l3-1.2l-0.7-2.8l-0.1-0.1c-0.4,0.6-1.2,0.9-1.2,0.9s-8.3-5.3-8.8-5.6 C89,137.4,89,137,89,137l-0.1-0.1l-3.3,1.5l0.4,2.8l-2.9,1.1c0,0,0.4,1,0.6,2.9l0.1,0.1c0.3-0.5,1-1.1,1.2-0.9c0,0,8.5,5.4,9,5.7 c0.5,0.3,0.5,0.9,0.5,0.9l0.1,0.1l2.7-0.9l-0.6-2.7l-0.1-0.1l-1,0.4l-9-5.7l-0.1-1.3l1.5-0.7c0,0,7.9,5,8.6,5.5 c0.7,0.4,0.5,0.9,0.5,0.9L97.2,146.5z M80.2,150.7l4.5-0.1c0,0,0.4,1.8,0.8,3.1L80.2,150.7z M91.8,153.1c0.5,1.2-0.5,1.6-2.4,2.8 l-3.1-1.8c-0.6-2.1-0.9-3.7-1.3-6l-0.1-0.1l-5.2,0.1c0,1.5-0.1,3.4-0.4,5.3c0,0,8.4,4.7,8.9,5c0.6,0.3,0.5,0.8,0.5,0.8l0.1,0.1 c1.1-0.9,3-2,4.6-2.8l-1.1-3.6L91.8,153.1z M87,167.9l-1.3-2.8l3.4,1.5L87,167.9z M83.5,166.7l-10-4.3l0-0.1l2.3-1.5l9.3,4.1 l0.4,0.8L83.5,166.7z M88.1,161.7c-0.3,0.6-1.1,1-1.1,1s-9.8-4.3-10.3-4.5c-0.5-0.2-0.5-0.7-0.5-0.7l-0.1-0.1l-3.6,2.5 c0,0,0.6,1.3,0.9,5.4c0,0,8.3,3.7,8.9,3.9c0.6,0.3,0.6,0.8,0.6,0.8l0.1,0.1l3.6-2.2l1.4,2.8l2.9-2.2l-2.5-6.7L88.1,161.7z M111.6,128.3L111.6,128.3c-0.6,0.4-1.5,0.5-1.5,0.5s-7.3-6.6-7.7-7c-0.4-0.4-0.3-0.8-0.3-0.8L102,121l-3.2,0.5c0,0,0.2,0.9,0.1,2.9 l0.1,0.1c0,0,1-1.1,1.6-0.5c0.4,0.4,6.9,6.3,7.5,6.8c0.6,0.6,0.4,1,0.4,1l0.1,0.1l3.2-0.6L111.6,128.3z M82.1,173.5 c0.7,1.1,0.1,1.4-1.2,2.5l-9.4-3.3l-0.3-0.6c0.5-0.4,3.5-0.9,3.5-0.9l0-0.1c-1.1-1.4-1.5-2.5-1.5-2.5l-0.1,0l-3.5,1.2l1.2,2.6 l-2.6,1.4c0,0,0.6,0.9,1.2,2.7l0.1,0c0.2-0.6,0.8-1.3,1-1.2c0,0,9.1,3.2,9.7,3.4c0.6,0.2,0.6,0.7,0.6,0.7l0.1,0c1-1,2.2-2.1,3.3-2.9 l-1.7-3.3L82.1,173.5z M178.1,359.1c0,0-3.6,0-4.4,0c-0.6,0-1-0.2-1.4-0.6c0-0.6-0.1-0.9-0.1-0.9c0-0.8-0.3-1.5-0.7-2.3 c0.6,0.2,1.3,0.3,2,0.3c1.1,0,1.7,0,1.7,0s-0.5-0.7-0.5-2c0-1,0.2-2,0.2-2s-4.3,0-5.5,0c-1.3,0-2.2-1-2.6-1.5c0-0.1-0.1-0.1-0.2-0.2 c0,0,0,0,0,0c-0.6-0.9-1.3-1.9-1.6-2.4h-6.1c0.9-0.4,1.8-1,2.5-2c0.5-0.7,1-1.6,1-1.6l-2.8-1.6c0,0-1.6,2.5-2.2,3.3 c-1.5,2-3.3,1.9-3.3,1.9l0,0h-0.6c-4.4,0-6.1-2.9-6.1-2.9l-0.5,0.3l2.4,3.6c0,0,0,0,0,0l2.8,4.3c0.2,0.4,1,2,1,5l0,3.7 c0.8-0.2,2.9-0.2,3.9,0c0-0.8,0-2,0-2c0-0.9-0.4-1.8-0.9-2.8c0.7,0.3,1.4,0.5,2.3,0.5c0.6,0,2,0,2,0s-0.2-0.7-0.2-1.8 c0-0.9,0.2-1.7,0.2-1.7s-3.9,0-5,0c-1.8,0-3.1-1.7-3.1-1.7l-1.3-1.9c1.3,0.8,3,1,5.6,1h10c0.3,0.7,1,2.4,1,5.4l0,2.2 c1.4-0.2,2.7-0.3,4-0.1c0,0,0,0.1,0,0.1c0.1,0.3,0.4,0.9,0.4,2.5v3.8c0.5-0.3,2.6-0.3,3.3,0c0-1.3,0.1-2.3-0.7-3.6 c0.5,0.2,1,0.3,1.6,0.3h1.7c0,0-0.4-0.6-0.4-1.5C177.9,359.7,178.1,359.1,178.1,359.1z M104.2,136.7c-1,0.2-3.2,1.2-3.7,1.5 l-1.5-4.6l1.2-0.6l4,3.2L104.2,136.7z M96.7,133.3l-3.6-2.9l0-0.2c0,0,2.9-0.5,4-1l1.1,3.7L96.7,133.3z M101.4,129.9l-0.1-0.1 l-2.9,1.4l-1.4-4.6c-0.6,0.4-3,1.1-4,1.1c-0.1,1.7-1.3,5-1.3,5s2.9,2.3,3.4,2.7c0.5,0.4,0.4,0.9,0.4,0.9l0.1,0.1l3.4-1.4l1.8,5.8 c0.4-0.5,3.2-1.7,3.8-1.8c-0.1-0.6,0.6-4.4,1-5.2c0,0-3.3-2.7-3.8-3C101.3,130.4,101.4,129.9,101.4,129.9z M173,222 c1.9,0,3.4,1.5,3.4,3.4c0,1.9-1.5,3.4-3.4,3.4c-1.9,0-3.4-1.5-3.4-3.4C169.6,223.5,171.1,222,173,222z M173,229.7 c2.4,0,4.3-1.9,4.3-4.3c0-2.3-1.9-4.3-4.3-4.3c-2.4,0-4.3,1.9-4.3,4.3C168.7,227.7,170.6,229.7,173,229.7z M225.5,136h1.8v-1.8h1.8 v-1.8h-1.8v-1.8h-1.8v1.8h-1.8v1.8h1.8V136z M227.8,107.4l-1.7-2.7l-1.7,2.7l1.7,2.7L227.8,107.4z M232.2,136h1.8v-1.8h1.8v-1.8H234 v-1.8h-1.8v1.8h-1.8v1.8h1.8V136z M98.1,120.6c0.3-1.1,0.4-3.8,0.4-3.8c-0.4-0.3-1.8-0.6-1.8-0.6l0.4,3.8 C97.1,120,97.9,120.5,98.1,120.6z M232.3,238.2h1.8v-1.4h1.4v-1.7H234v-1.4h-1.8v1.4h-1.4v1.7h1.4V238.2z M189.5,155.1l-1.7,2.7 l1.7,2.7l1.7-2.7L189.5,155.1z M185.4,238.2h1.8v-1.4h1.4v-1.8h-1.4v-1.4h-1.8v1.4H184v1.8h1.4V238.2z M174.7,167.7L173,165 l-1.7,2.7l1.7,2.7L174.7,167.7z M172.2,227.7h1.8v-1.4h1.4v-1.7h-1.4v-1.4h-1.8v1.4h-1.4v1.7h1.4V227.7z M155.3,92.4 c-0.7,1.2-0.8,2.4-0.8,3.9c0.9-0.4,3.5-0.3,4.1,0V92c0-2,0.3-3,0.5-3.3l1.5-2.3c1.5,0,2.9-0.2,4-0.8c-0.7,1.1-0.8,2.2-0.8,3.7 c0.8-0.3,3.2-0.3,3.8,0v-4c0-2.5,0.6-3.2,0.6-3.2l2.2-3.3h3.3c0.4,0,0.7,0,1,0c-0.6,0.7-1.4,1.7-2.2,2.6c-1.4,1.6-1.6,3-1.6,4.9 c0.8-0.3,3.4-0.3,4,0V82c0-2.2,0.4-3.1,0.5-3.3c3.9,0.6,5.3,3.1,5.3,3.1l0.5-0.3l-2.3-3.7c-1.9-2.4-4.1-2.9-6.6-3 c-1.2,0-9.6,0-11.2,0c0.7,0.7,0.7,2.4,0.4,3.3c-0.5,0.4-1.8,1.5-3.2,1.5h-4.6c0.2,1,0.2,2.7,0,3.7c2.8,0,5-0.5,6.7-2.8l1.6-2h7.7 l-1.6,2.4c-0.2,0.2-1.8,1.7-3.4,1.7h-4.6c0.2,0.9,0.2,2.2,0.1,3.2l-1.3,1.9c0,0,0,0,0,0c0,0-1.5,1.5-3.3,1.5h-3.9 c0.2,1,0.2,2.7,0,3.7C153.3,93,154.3,92.8,155.3,92.4z M122.9,107.1c-0.7,1.3-0.7,2.7-0.7,4.5c1-0.4,3.3-0.4,4,0c0-1.1,0-1,0-4.6 c0-2.5,1.1-4.3,1.2-4.3l0.8-1.2c1.1-0.2,3-0.2,3.7,0.1c0-1,0,0,0-3.4c0-2.2,0.5-3.2,0.9-3.7h0.9c3.1,0,5.2-0.1,6.7-1.3 c-0.6,1.4-1.1,3.1-1.1,4.8c0,1,0,3.2,0,4.2c-0.1,0.1-0.1,0.2-0.2,0.2c-0.6,0.5-1.7,1.2-2.9,1.2h-3.9c0.2,1,0.2,2.7,0,3.7 c1.4,0,2.5-0.1,3.4-0.5c-0.5,1.1-0.7,2.2-0.7,3.6c0.9-0.4,3.5-0.3,4.1,0V106c0-2.1,0.4-3.1,0.5-3.4c0.7-0.1,2-0.3,3.2,0.1v-7.4 c0-1.4-0.3-5.1,0.8-6.7l1.3-2l-0.5-0.3l-0.4,0.6l-1.3,2l0,0c-0.1,0.1-0.1,0.2-0.2,0.3c-0.6,0.7-2,1.6-4.9,1.6c-1.2,0-1.2,0-2.6,0 c-1.3,0-2.1-0.6-2.1-1.1c-0.5,0-0.7,0-0.7,0l0,4.1c-0.2,0.2-0.6,0.5-1.1,0.8c-0.6,0.5-1.7,1.2-2.9,1.2h-3.2c0.2,1,0.2,2.5,0,3.5 c1.3,0,2.2-0.1,2.9-0.4c-0.2,0.6-0.3,1.2-0.3,2.1l-0.9,1.3c-0.3,0.2-1.8,1.7-3.4,1.7h-4.6c0.2,1,0.2,2.7,0,3.7 C120.4,107.8,121.7,107.6,122.9,107.1z M107,115.7c0,0,2.9,0,4.1-0.4l0.5,3.8l-1.6,0.3l-3.2-3.4L107,115.7z M113.7,119.6l3.5,3.8 l-0.1,0.4c-1,0.1-3.4,0.7-3.9,0.9l-0.8-4.7L113.7,119.6z M108.3,122.2L108.3,122.2l3.7-0.8l1,6c0.4-0.4,3.4-1.2,4-1.2 c0-0.6,1.2-4.3,1.7-5.1c0,0-2.9-3.2-3.3-3.6c-0.4-0.4-0.2-0.9-0.2-0.9l-0.1-0.1l-3.1,1l-0.7-4.8c-0.7,0.3-3.2,0.6-4.1,0.5 c-0.4,1.7-2.1,4.8-2.1,4.8s2.5,2.7,2.9,3.2C108.5,121.7,108.3,122.2,108.3,122.2z M222.3,83.5l-1.7-2.7l-1.7,2.7l1.7,2.7L222.3,83.5 z M98.8,223.3l1.7,2.7l1.7-2.7l-1.7-2.7L98.8,223.3z M211.4,78.5l-1.7-2.7l-1.7,2.7l1.7,2.7L211.4,78.5z M216.7,107.4l-1.7-2.7 l-1.7,2.7l1.7,2.7L216.7,107.4z M101.3,248.8v-1.4h1.4v-1.7h-1.4v-1.4h-1.8v1.4h-1.4v1.7h1.4v1.4H101.3z M195,107.4l-1.7-2.7 l-1.7,2.7l1.7,2.7L195,107.4z M200.4,83.4l-1.7-2.7l-1.7,2.7l1.7,2.7L200.4,83.4z M326.6,120.3l-3.8,0.1c0,0-0.5,0.7-0.7,0.9 c1.1,0.4,3.8,0.8,3.8,0.8C326.2,121.7,326.6,120.3,326.6,120.3z M181.2,370l3-2.3c0,0,0-0.9,0.1-1.1c-1.1,0.3-3.5,1.6-3.5,1.6 C180.7,368.7,181.2,370,181.2,370z M298.1,117.5c0,0,6.2-7.9,6.6-8.4c0.4-0.5,0.9-0.4,0.9-0.4l0.1-0.1l-0.6-2.8l-2.7,0.3l-0.1,0.1 l0.3,1.1l-6.5,8.3l-1.3,0l-0.5-1.6c0,0,5.8-7.4,6.3-8c0.5-0.6,0.9-0.4,0.9-0.4l0.1-0.1l-0.9-3.1l-2.9,0.4l-0.1,0.1 c0.6,0.4,0.7,1.3,0.7,1.3s-6.1,7.7-6.4,8.2c-0.3,0.4-0.8,0.4-0.8,0.4l-0.1,0.1l1.1,3.5l2.8-0.1l0.8,3c0,0,1-0.3,2.9-0.3l0.1-0.1 C298.4,118.4,298,117.7,298.1,117.5z M320.4,125.5c0.4-0.4,0.8-0.2,0.8-0.2l0.1-0.1l-0.2-3.2c0,0-0.9,0.1-2.9-0.2l-0.1,0.1 c0,0,1,1.1,0.4,1.6c-0.4,0.4-6.9,6.3-7.6,6.8c-0.6,0.6-1,0.3-1,0.3l-0.1,0.1l0.3,3.2l2.9,0.1l0.1-0.1c-0.5-0.5-0.5-1.4-0.5-1.4 S320,125.9,320.4,125.5z M315.5,118.7l0.1-0.1l-0.8-3.6l-2.8-0.2l-0.5-3c0,0-1.1,0.2-3,0l-0.1,0.1c0.4,0.4,0.8,1.2,0.7,1.4 c0,0-6.9,7.3-7.4,7.7c-0.4,0.5-0.9,0.3-0.9,0.3l-0.1,0.1l0.3,2.8l2.7,0l0.1-0.1l-0.2-1.1l7.3-7.7l1.3,0.1l0.4,1.6 c0,0-6.5,6.8-7.1,7.4c-0.6,0.6-1,0.3-1,0.3l-0.1,0.1l0.5,3.2l2.9-0.1l0.1-0.1c-0.5-0.5-0.6-1.4-0.6-1.4s6.8-7.1,7.2-7.5 C315.1,118.6,315.5,118.7,315.5,118.7z M276,95.2l-1.2-1.6l2.2-4.2l0.3,0c0,0,1.7,3.1,2.8,4.3L276,95.2z M274.1,102l-0.5,0 c-0.6-1-2.7-3.4-3.2-3.9l5-2l1.2,1.3L274.1,102z M280.7,98.3l0.1-0.1l-2.8-3l5.8-2.2l-0.3-0.6l-0.9,0.4c-0.8-1-2.1-2.9-2.4-3.7 c-2.1,0-6.6-1-6.6-1s-1.7,3.3-2,3.8c-0.3,0.6-1,0.5-1,0.5l-0.1,0.1l3.1,3.6l-7.5,3l0.3,0.4l1.4-0.5c1,0.9,2.8,3,3.1,3.5 c0.7-0.1,5.6,0.3,6.7,0.6c0,0,2-3.8,2.2-4.3C280.1,98.3,280.7,98.3,280.7,98.3z M228.3,157.8l1.7,2.7l1.7-2.7l-1.7-2.7L228.3,157.8z M285.2,103.9l-1.5-1l-1,1.4l-1.4-1l-1,1.5l1.4,1l-1,1.4l1.5,1l1-1.4l1.4,1l1-1.5l-1.4-1L285.2,103.9z M330.4,136.1L330.4,136.1 l0.2-2.9l-2.7-0.4l-0.1,0.1l0,1.1l-9,6.9l-0.4-0.2l-0.2-2.4c0,0,7.3-5.6,8-6.1c0.7-0.5,1-0.2,1-0.2l0.1-0.1l-0.1-3.2l-2.9-0.4 l-0.1,0.1c0.4,0.6,0.4,1.4,0.4,1.4s-7.8,6-8.3,6.3c-0.4,0.3-0.9,0.2-0.9,0.2l-0.1,0.1l0.5,4c0,0,3.3,0.9,5.5,1.9c0,0,7.5-5.8,8-6.2 C329.9,135.9,330.4,136.1,330.4,136.1z M264.2,92.4l-1.6-0.7l-0.7,1.6l-1.6-0.7l-0.7,1.6l1.6,0.7l-0.7,1.6l1.6,0.7l0.7-1.6l1.6,0.7 l0.7-1.6l-1.6-0.7L264.2,92.4z M264.6,87.9l1.6,0.7l0.7-1.6l1.6,0.7l0.7-1.6l-1.6-0.7l0.7-1.6l-1.6-0.7l-0.7,1.6l-1.6-0.7l-0.7,1.6 l1.6,0.7L264.6,87.9z M320.7,223.3l-1.7-2.7l-1.7,2.7l1.7,2.7L320.7,223.3z M327.6,253.1V185l0,0l-1.4-2.2L325,185v0h0v20.7 l-12.1-17.3v-40.2c14.4,20.4,22.8,45.3,22.8,72.2c0,26.9-8.4,51.8-22.8,72.2v-39.5H327.6z M317.1,242.7c-1.4,0.7-2.4,2.2-2.4,3.8 c0,1.7,1,3.1,2.4,3.8h-4.3v-7.7H317.1z M313.6,230.4c0.5-0.4,1.2-0.7,2-0.7c1.5,0,2.5,1,2.5,2.2v8.2h-5.3v-8.3 C312.9,231.3,313.1,230.8,313.6,230.4z M319.8,240.1v-8.2v0c0-1.1,1-2.1,2.5-2.1c0.7,0,1.4,0.3,1.9,0.7c0.5,0.4,0.7,0.9,0.7,1.3v8.3 H319.8z M319,250c-1.9,0-3.4-1.5-3.4-3.4c0-1.9,1.5-3.4,3.4-3.4c1.9,0,3.4,1.5,3.4,3.4C322.4,248.4,320.9,250,319,250z M323.3,246.6 c0-1.7-1-3.1-2.4-3.8h4.1v7.7h-4C322.3,249.7,323.2,248.3,323.3,246.6z M319,215.4l6,9.1v4.3c-0.8-0.5-1.7-0.8-2.6-0.8 c-1.3,0-2.6,0.6-3.3,1.5c-0.8-0.9-2-1.5-3.4-1.5c-1,0-1.9,0.3-2.7,0.8v-4.1L319,215.4z M319.8,208.4v-1.6h-1.8v1.6h-1.6v1.8h1.6v3.4 l-5.3,8v-30.2l12.1,17.3v12.6l-5.1-7.8v-3.4h1.6v-1.8H319.8z M320,330.5c-2.3,2.3-4.7,4.6-7.2,6.7v-41.7 c15.4-21.1,24.5-47.1,24.5-75.2c0-28.1-9.1-54.1-24.5-75.2v-5.8h0l-2-3.4l-2,3.4h0v0l0,0h0v0.6c-3.6-4.4-7.5-8.6-11.6-12.5v-3 l-2.7-3.7v4.2c-7.5-6.6-15.7-12.4-24.6-17.2v-2.2l-2.7-3.9v4.7c-3.8-1.9-7.7-3.6-11.7-5.2v-6h0l-2-3.4l-2,3.4h0v4.5 c-5.8-2-11.7-3.6-17.8-4.8V73.6h0l-1.4-1.7l-1.3,1.7h0v20.9c-1.4-0.2-2.7-0.4-4.1-0.6V65.3c36.2,4,68.6,20.3,93,44.7 c28.2,28.2,45.7,67.2,45.7,110.3C365.7,263.3,348.3,302.3,320,330.5z M257,315.3V331l-2,1.8v-21.1L257,315.3z M255.6,255.2 c0-0.7,0.4-1.4,1-1.9c0.4-0.3,0.8-0.5,1.3-0.7v18.9c0,0,0,0.1,0,0.1h0v39.8l-2.3-4.1L255.6,255.2L255.6,255.2z M261.7,225.1l5.2,8.1 c-1.6,1-3,2.1-4.3,3.2v-3.9h-1.8v5.8c-0.9,1.1-1.8,2.2-2.5,3.4c-1.2,2-2.1,3.9-2.8,5.7v-13L261.7,225.1z M256.4,202.5 c0.5-0.4,1.2-0.7,1.9-0.7c1.5,0,2.5,1,2.5,2.1v19.3l-5.2,7.9v-27.3C255.7,203.4,255.9,202.9,256.4,202.5z M260.6,182.2l-5,13.7 v-92.8c1.7,0.7,3.3,1.3,5,2.1V182.2z M267.2,200.8c-0.7-0.4-1.5-0.7-2.4-0.7c-1.3,0-2.4,0.6-3.1,1.5c-0.8-0.9-2-1.5-3.4-1.5 c-0.9,0-1.8,0.3-2.6,0.7l5.7-15.8L267.2,200.8z M267.3,196l-4.9-13.7V106c1.7,0.8,3.3,1.6,4.9,2.4V196z M262.6,203.9 c0-1.2,1-2.1,2.2-2.1c0.6,0,1.3,0.3,1.8,0.7c0.5,0.4,0.8,0.9,0.8,1.5v26.6l-4.7-7.3L262.6,203.9L262.6,203.9z M299.5,201.8 c1.2,0,2.2,1,2.2,2.1v19.3l-4.5,6.8v-26.4C297.4,202.7,298.3,201.8,299.5,201.8z M302.2,182l-4.9,13.6v-65.8c1.7,1.6,3.3,3.3,4.9,5 V182z M303.9,182.3v-45.5c1.7,1.9,3.3,3.9,4.9,5.9V196L303.9,182.3z M308.7,200.8c-0.8-0.5-1.7-0.8-2.7-0.8c-1.4,0-2.6,0.6-3.4,1.5 c-0.7-0.9-1.8-1.5-3.1-1.5c-0.8,0-1.6,0.2-2.2,0.7l5.7-15.8L308.7,200.8z M303.5,223.2v-19.3c0,0,0,0,0,0c0-1.1,1.1-2.1,2.6-2.1 c0.7,0,1.5,0.3,2,0.7c0.5,0.4,0.8,0.9,0.8,1.4v27.6L303.5,223.2z M306,241.7c-0.7-1.2-1.5-2.3-2.5-3.4v-6h-1.8v4.2 c-1.3-1.2-2.8-2.4-4.5-3.3l5.3-8l6.2,9.6v12.9C308.2,245.7,307.3,243.7,306,241.7z M306.5,330.2v-77.8c0.7,0.1,1.2,0.4,1.5,0.7 c0.4,0.3,0.6,0.8,0.7,1.4c0,0.1,0,0.1,0,0.2c0,0.1,0,0.3,0,0.4v75.1H306.5z M265.2,253.3c0.5-0.4,1.2-0.7,1.9-0.8v5.5h-3v-2.8 C264.1,254.5,264.5,253.8,265.2,253.3z M273.1,240.3c-1,3.5-1.2,7.6-1.2,11.6c-1-0.8-2.4-1.3-3.9-1.3h0c-1.3,0-2.6,0.4-3.5,1 c0.7-3.7,2.7-7.5,5.3-10.5c1.4-1.6,3-3.1,4.7-4.2C273.9,237.9,273.4,239.1,273.1,240.3z M277.5,250.6L277.5,250.6 c-1.5,0-2.9,0.5-3.9,1.2c0-3.9,0.2-8,1.1-11.1c1.1-3.6,2.9-5.9,6.6-6.2l0,17.2C280.2,250.9,278.8,250.6,277.5,250.6z M283.9,256.5 c0.6,0.4,1.3,0.7,1.8,0.9c-0.4,0.6-0.9,1.4-0.9,2.5c0,0.2,0,0.5,0.1,0.7c0,0.1,0.1,0.1,0.1,0.2c-0.3,0.5-1.1,1.1-1.7,1.1 c0,0-0.1,0-0.1,0c-0.5-0.1-0.8-0.3-1.3-0.7c-0.2-0.1-0.4-0.3-0.6-0.4c0.1-0.3,0.1-0.7,0.2-1.1c0-0.4-0.1-0.7-0.5-0.9 c-0.2-0.1-0.6-0.3-0.9-0.5c0.5-0.7,0.8-1.4,1.1-2c0,0.1,0,1-0.1,1.4c0,0.4,0.3,0.3,1.1,0.4c0.7,0,1.2-0.2,1.2-0.2s0-0.3-0.5-0.8 c-0.5-0.5-1.6-0.8-1.6-0.8c0.1-0.2,0.2-0.4,0.3-0.5c0.1-0.2,0.2-0.3,0.5-0.5c0.1-0.1,0.3-0.2,0.5-0.4 C282.8,255.6,283.4,256.1,283.9,256.5z M290.9,249.6c-0.9-0.3-1.8-0.4-2.6-0.4c-1,0-1.9,0.1-2.7,0.3c-0.9,0.2-1.8,0.6-2.5,1.2 l0-16.1c0.5,0,1,0.1,1.4,0.2l0,0c0.1,0,0.2,0.1,0.4,0.1c2.3,0.7,3.6,2.2,4.6,4.5C290.6,242,290.8,245.7,290.9,249.6z M296.6,250.6 L296.6,250.6c-1.2,0-2.3,0.3-3.2,0.8c-0.1-0.2-0.3-0.4-0.5-0.6c-0.1-0.1-0.1-0.1-0.2-0.1c0-4.3-0.2-8.6-1.5-12 c-0.1-0.4-0.3-0.8-0.5-1.1c1.4,1,2.8,2.2,4,3.6c2.7,3,4.7,6.8,5.5,10.5C299.1,251,297.9,250.6,296.6,250.6z M300.4,316.8 c-1.2-0.5-2.5-1-3-1.2v-63.1c0.8,0.1,1.4,0.4,2,0.8c0.7,0.5,1.1,1.2,1.1,1.9V316.8z M295.6,322.1l-1.9,3.9c-0.3,0.1-0.6,0.2-1,0.3 v-4.9L295.6,322.1z M286.1,319.7v10.5h-3l0-11.3L286.1,319.7z M279,315.1l2.2,0.2l-0.4,1.2c-0.4-0.1-0.7-0.3-1-0.5 C279.4,316,279.2,315.6,279,315.1z M277.4,304.6c-0.6,0.4-1.4,0.7-2,1c0,0-0.1,0-0.1,0c-0.1-0.3-0.3-0.7-0.6-1l4.5-2.8l-0.3,1.5 C278.7,303.6,278.2,304.1,277.4,304.6z M264.6,329c1.3,0,3-0.2,4.6-0.9c2-1,3.4-1.9,4.1-2.5l4.3,2.5c0,0,0,0.1,0,0.1 c0,0.1,0,0.1,0,0.1h0v0c0,0.3-0.1,0.7-0.3,1c0,0,0,0.1-0.1,0.1h0c-0.3,0-1.1-0.2-2.4-0.2c-0.3,0-0.6,0-1,0c-2.9,0.2-4.1,0.8-6,0.8 c-0.1,0-0.3,0-0.5,0c-2.4-0.1-3.3-0.3-3.8-0.8c-0.1-0.1-0.1-0.1-0.2-0.2C263.6,328.9,264.1,329,264.6,329z M271.9,284.5v12.9 c-1.1,0.9-2.1,1.7-3,2.5v-16.7L271.9,284.5z M277.5,283.8l-0.3,0.9l-7.4-3l0.2-0.5L277.5,283.8z M287.3,313.2 c0.3,0.1,0.6,0.1,0.9,0.1c1.6,0.2,3.4,1,5,1.9c1.6,0.8,2.8,1.6,3.5,1.9c0.6,0.2,1.9,0.8,3.1,1.2c-0.3,0.1-0.5,0.3-0.8,0.5l-12.1-4.4 L287.3,313.2z M290.9,305.3v7c-0.8-0.3-1.6-0.5-2.5-0.7c-0.1,0-0.3,0-0.4-0.1C288.7,310.3,289.9,307.9,290.9,305.3z M289.9,296.7 l2-0.2c0,0.2-0.1,0.4-0.2,0.7c-0.3,1.2-0.8,3-1.6,5.4c-0.8,2.3-1.9,4.7-2.7,6.4c-0.5,1.1-0.9,1.9-1.2,2.4l-1.1-0.1L289.9,296.7z M285.6,297.1l2.4-0.2l-4.6,14.2l-1.1-0.1L285.6,297.1z M279.7,307.9c0.4-2.1,0.8-4.1,0.8-4.1l0,0l1.1-6.4l2.1-0.2l-3.3,13.5 l-1.3-0.1C279.3,309.8,279.5,308.8,279.7,307.9z M273.5,303.3c-0.2-0.2-0.5-0.5-0.8-0.7l7-4.9l0.2,0l-0.3,1.9L273.5,303.3z M280.3,288.5l-0.5,3.9c-0.3,0.1-0.8,0.4-1.4,0.7l0-5.2C278.9,288.1,279.5,288.4,280.3,288.5z M279.9,282.3l2.5,3.5 c-0.3,0.4-0.7,0.9-1.3,1h0v0c-0.1,0-0.2,0-0.3,0h-0.1c0,0,0,0,0,0c-0.8,0-1.4-0.3-1.8-0.7c-0.1-0.1-0.3-0.2-0.4-0.4L279.9,282.3z M281.4,271.5c-0.1,0.2-0.3,0.3-0.4,0.5c-0.5,0.6-0.8,1.4-0.8,2.4c0,0.4,0,0.8,0.1,1.3c0.1,0.7,0.4,1.7,0.6,2.3l-1.5,1.5l-1-0.3 v-10.8c0.3,0.1,0.6,0.2,0.9,0.2c0.6,0.1,1.3,0.2,2.1,0.2V271.5z M284.2,277.1l1.5,1.2l-4,3.5l-0.9-1.2L284.2,277.1z M284.7,271.1 l-2.3,4.6l0.4,0.3l-0.5,0.5c-0.1-0.4-0.2-0.8-0.3-1.2c-0.1-0.4-0.1-0.7-0.1-0.9c0-0.6,0.1-0.9,0.5-1.4c0.3-0.4,0.9-1,1.6-1.7 c0,0,0,0,0,0L284.7,271.1z M292.7,268.5c0.3,0.4,0.7,0.8,0.9,1.1c0.3,0.3,0.4,0.7,0.4,0.7c0,0.2,0,0.6,0,1.2c0,0.9-0.1,2.1-0.3,3.6 c-0.3,1.2-1.2,2.5-2,3.6c-0.4,0.5-0.8,0.9-1.1,1.2l-5.9-4.7l2.4-4.9L292.7,268.5z M295,268.7c-0.8-1.2-2.1-2.4-2.5-2.7l-0.8-1.5 c0.8,0,1.6-0.3,2.4-0.8c0.7-0.5,1.2-1.1,1.5-1.8v8.2C295.6,269.5,295.3,269.1,295,268.7z M292.7,300.3c0.6-1.9,0.9-3.2,1.1-3.9 l1.3-0.1l-0.1-0.9c0,0-0.3-2.4-0.5-4.4c-0.2-1.9-1.6-4-2.2-4.9c0.1-0.2,0.2-0.5,0.3-0.9c0.3-1,0.8-2.5,1.7-4.9 c0.6-1.8,1-3.4,1.2-4.9c0,0,0,0,0,0h0c0.1-0.9,0.2-1.7,0.3-2.4v41.6c-0.5-0.3-1.1-0.6-1.7-0.9c-0.4-0.2-0.9-0.4-1.3-0.7V300.3z M293,293.7c0,0.3,0.1,0.7,0.1,0.9l-1.3,0.1h0l-10.6,1l0.1-0.9L293,293.7z M292.7,291c0,0,0,0.1,0,0.2c0,0.2,0,0.5,0.1,0.7 l-11.3,1.1l0.1-1L292.7,291z M291,287.5c0.2,0.2,0.3,0.5,0.5,0.9c0.2,0.3,0.3,0.6,0.5,0.9l-10.2,1l0.2-1.9L291,287.5z M283.7,284.5 l-1-1.3l4.3-3.8l1.8,1.4L283.7,284.5z M290.8,284.7c-0.2,0.6-0.3,0.9-0.4,1.2l-6.4,0.6c0-0.1,0.1-0.1,0.1-0.2l1.4-1L290.8,284.7z M288.5,283.2l1.8-1.3l0.4,0.3l0.6-0.5c0,0,0.4-0.4,0.9-1c-0.3,0.8-0.5,1.5-0.7,2.1L288.5,283.2z M288,265.2 c0.3-0.4,0.6-0.9,0.9-1.4c0.2,0.1,0.4,0.2,0.6,0.3l0.2,0.4L288,265.2z M290.6,266l0.6,1l0.1,0.1c0,0,0,0,0,0l-6.7,2.1 c0-0.2-0.1-0.4-0.2-0.6L290.6,266z M273.6,296v-10.8l3,1.2l-0.1,7.6C275.7,294.5,274.7,295.2,273.6,296z M273.8,298 c1.7-1.4,3.5-2.5,4.8-3.2c0.3-0.2,0.6-0.3,0.9-0.5l-0.2,1.3l-8,5.7c-0.3-0.2-0.5-0.5-0.7-0.6C271.5,300,272.6,299.1,273.8,298z M272.3,305.8l-3.9-3.1c0.3-0.3,0.6-0.6,0.9-0.9c0.8,0.7,2.5,2.1,3.3,2.9c0.5,0.5,0.8,1,1.1,1.4l-0.2,0.1l0,0l-5.6,2.2 c-0.2-0.2-0.3-0.4-0.5-0.6L272.3,305.8z M266.7,306.3c0,0,0-0.1,0-0.1c0-0.8,0.2-1.4,0.6-2l1.6,1.2L266.7,306.3z M266.9,310.1 l0.2,0.6v16.2c-0.9,0.2-1.8,0.3-2.6,0.3c-0.2,0-0.3,0-0.4,0v-45.1c0.6,0.1,1.5,0.1,2.4,0.2c0.2,0,0.4,0,0.6,0v19.2l-0.1,0.1 c-1.3,1.4-2.2,2.8-2.2,4.6C264.9,308.3,266.3,309.6,266.9,310.1z M272.1,324.2c-0.6,0.4-1.6,1.2-3.2,2v-10.7L272.1,324.2z M268.7,310l2-0.8l3.9,15.1l-0.8-0.5L268.7,310z M275.7,307.4c0.3-0.1,0.6-0.2,0.9-0.4v2.9C276.2,308.8,275.9,308,275.7,307.4z M276.9,320.6c0,0.7,0,1.3,0,1.8c0,1.1,0,1.9,0.3,3.1c0,0.1,0.1,0.3,0.1,0.4l-0.6-0.3l-4.4-17l1.7-0.7c0.3,0.8,0.8,2.1,1.3,3.6 C276.3,314,276.9,316.2,276.9,320.6z M294,253.1c0.4-0.3,1-0.5,1.7-0.6v5.2c-0.1-0.4-0.3-0.8-0.5-1.2c-0.4-0.8-0.8-1.4-1.4-1.9 c0.1-0.3,0.1-0.7,0.2-1.1C294,253.3,294,253.2,294,253.1z M292.5,255.8c0.2,0.1,0.8,0.7,1.2,1.5c0.4,0.8,0.7,1.8,0.7,2.7 c0,0.3,0,0.5-0.1,0.8c-0.3-0.5-0.6-1.1-0.8-1.7l-1.7,0.5c0.4,1.2,1,2.2,1.4,2.8c-0.2,0.1-0.4,0.2-0.5,0.3c-0.4-0.6-1.2-1.7-1.5-2.7 l-1.7,0.5c0.3,0.9,0.7,1.7,1.1,2.4c-0.3-0.1-0.6-0.2-0.8-0.4c-0.2-0.1-0.4-0.3-0.5-0.4c-0.1-0.1-0.1-0.1-0.1-0.1l-0.3-0.3l-0.5,0.1 c-0.1,0-0.2,0-0.2,0c-0.7,0-1.2-0.4-1.5-1.3c0-0.1,0-0.2,0-0.3c0-0.6,0.7-1.4,1.2-2.5l0.3-0.7l-0.7-0.4c-0.7-0.3-1.6-0.7-2.4-1.2 c-0.8-0.5-1.3-1.1-1.3-2.1c0,0,0-0.1,0-0.1l0,0c0.1-0.2,0.3-0.5,0.6-0.8c0.5-0.4,1.1-0.7,1.8-0.8c0.7-0.2,1.5-0.3,2.3-0.3 c1.3,0,2.5,0.3,3.3,1.1c0.6,0.6,0.7,1,0.7,1.4c0,0.4-0.2,0.8-0.3,1.4l-0.1,0.7L292.5,255.8z M278.9,262c0.2,0,0.4-0.1,0.5-0.1 c0.6,0,0.8,0.2,1.3,0.6c0.5,0.4,1.1,1,2.2,1.1c0.1,0,0.2,0,0.3,0c1.2-0.1,2.1-0.7,2.7-1.3c0.4,0.3,0.8,0.6,1.3,0.7 c-1.9,3.5-3.9,3.9-5.7,4c-0.2,0-0.3,0-0.5,0c0.2-0.3,0.5-0.6,0.7-0.8l-1.3-1.2c-0.5,0.5-1,1.1-1.4,1.8c-0.3-0.1-0.6-0.2-0.9-0.4 c0.1-0.1,0.1-0.2,0.2-0.3c0.4-0.5,0.9-1.2,1.4-1.6l-1.2-1.2c-0.5,0.6-1.1,1.3-1.5,1.9c-0.2-0.4-0.3-0.8-0.3-1c0-0.5,0.1-0.9,0.4-1.2 C277.3,262.5,277.9,262.2,278.9,262z M278.4,257.5v-5.1c1,0.1,2.1,0.6,2.7,1.2c-0.1,0.1-0.2,0.1-0.3,0.2c-0.2,0.2-0.6,0.4-0.9,0.9 C279.3,255.8,278.9,256.8,278.4,257.5z M279.6,260c0,0.1,0,0.1,0,0.2c0,0-0.1,0-0.1,0c-0.3,0-0.6,0-0.9,0.1c-0.1,0-0.1,0-0.2,0.1v-1 C278.7,259.6,279.2,259.8,279.6,260z M276.6,267.4v11.3l-3-0.8v-22.8c0-0.7,0.4-1.4,1.1-1.9c0.5-0.4,1.2-0.7,1.9-0.8v8.6 c-0.3,0.2-0.6,0.4-0.9,0.7c-0.6,0.7-0.8,1.6-0.8,2.4C274.9,265.2,275.5,266.5,276.6,267.4z M271.9,257.9h-3v-5.5 c0.8,0.1,1.4,0.4,1.9,0.8c0.7,0.5,1.1,1.2,1.1,1.9V257.9z M271,277.3c0.3-0.3,0.6-0.5,0.9-0.8v1.1L271,277.3z M278.5,281l-0.4,1.1 l-7.4-2.6l0.2-0.5L278.5,281z M262.1,279.2c-0.9-0.5-1.9-1.2-2.1-1.4c-0.3-0.3-0.3-0.4-0.3-0.5c0-0.1,0-0.1,0-0.2 c0.3,0.1,0.8,0.3,1.3,0.5c0.7,0.4,1.5,0.8,2.1,1c0.8,0.3,1.5,0.7,2.3,0.7c0.2,0,0.4,0,0.7-0.2c0.3-0.1,0.5-0.4,0.6-0.7l0-0.1 c0,0,0-0.1,0-0.2c0-0.6-0.4-0.9-0.6-1c-0.7-0.4-1.5-0.5-2.4-1c-0.1,0-0.1-0.1-0.1-0.1c0,0,0-0.2,0.4-0.2c0.1,0,0.3,0,0.5,0.1 c1.1,0.4,2.8,1,3.7,1.6c0.7,0.4,0.8,0.9,0.9,1.1l-0.8,1.9c-0.5,0-1.2-0.1-1.9-0.1c-0.6,0-1.3-0.1-1.8-0.1c-0.2,0-0.5,0-0.6-0.1 c0,0-0.1,0-0.1,0C263.6,280.1,262.9,279.7,262.1,279.2z M262.1,330.2h-2.4v-50.5c0.5,0.3,1,0.7,1.5,1c0.4,0.3,0.8,0.5,1.2,0.7V327 c-0.5-0.1-0.9,0.2-1,0.7c0,0-0.1,0.2-0.1,0.5C261.3,328.7,261.5,329.5,262.1,330.2z M279.2,328.2c0-0.1,0-0.3,0-0.5 c0-0.6,0-1.4-0.3-2.5c-0.2-1.2-0.3-1.7-0.3-2.8c0-0.5,0-1,0-1.8c0-1.2,0-2.3-0.1-3.2c0.1,0.1,0.3,0.2,0.4,0.3 c0.8,0.4,1.7,0.7,2.4,0.9l0,11.7h-2.7c0,0,0,0,0,0C279.1,329.5,279.2,328.8,279.2,328.2C279.2,328.2,279.2,328.2,279.2,328.2z M278.7,313.3c0-0.2,0-0.3,0-0.5c0-0.1,0-0.3,0.1-0.5l6.7,0.7l-1.6,4.3l-1.1-0.3l0,0c0,0-0.1,0-0.3,0l1-3.2L278.7,313.3z M285.7,317.8l0.6-1.6l11,4c-0.2,0.2-0.4,0.3-0.6,0.5L285.7,317.8z M289.5,330.2h-1.6v-10.1l3,0.8v6.2c-0.4,0.2-0.8,0.6-1.2,1 c-0.3,0.5-0.5,1-0.5,1.4C289.3,329.8,289.4,330,289.5,330.2z M300.4,328.6v1.7h-0.9C299.8,329.9,300.1,329.3,300.4,328.6z M302.4,319.4c0,0,0.1,0.2,0.1,0.5c0,0.5-0.2,1.4-0.6,2.1c-0.7,1.2-3.1,5.8-3.9,7.3l-7,0c0-0.1,0-0.2,0.2-0.3c0.1-0.2,0.9-0.7,1.7-1 c0.8-0.3,1.5-0.5,1.5-0.5l0.4-0.1l2.7-5.4c0.3-0.2,1-0.8,1.8-1.4c1-0.7,2.4-1.4,2.8-1.4h0C302.4,319.4,302.4,319.4,302.4,319.4z M303.8,318.4c-0.2-0.3-0.6-0.5-1-0.7v0c0,0-0.3-0.1-0.7-0.3v-62.3h0c0-1.3,0.9-2.4,2.6-2.7v77.8h-2.6v-5c0.5-1,1-2,1.3-2.4 c0.5-0.9,0.8-1.9,0.8-2.9C304.3,319.4,304.2,318.9,303.8,318.4z M259.7,257.9v-5.5c1.6,0.2,2.7,1.4,2.7,2.7v2.8H259.7z M271.9,259.7 v11.8c0,2.2-0.7,3.6-2.5,4.8c-0.1,0-0.1-0.1-0.2-0.1c-1.1-0.7-2.9-1.3-4-1.7c-0.4-0.1-0.7-0.2-1.1-0.2c-1.2,0-2.1,0.8-2.2,1.9 l-0.1,0c-0.1-0.1-0.3-0.1-0.4-0.2c-1.2-0.9-1.8-2.4-1.8-4.4v-11.8H271.9z M266.9,340.5v-1.8h1.7V337h1.8v1.7h1.7v1.8h-1.7v1.7h-1.8 v-1.7H266.9z M275.3,340.5v-1.8h1.7V337h1.8v1.7h1.7v1.8h-1.7v1.7h-1.8v-1.7H275.3z M283.8,340.5v-1.8h1.7V337h1.8v1.7h1.7v1.8h-1.7 v1.7h-1.8v-1.7H283.8z M255.8,335.6l3-2.7h50v2.7H255.8z M292.3,340.5v-1.8h1.7V337h1.8v1.7h1.7v1.8h-1.7v1.7H294v-1.7H292.3z M282.3,231.2L282.3,231.2c12.1,0,18.6,5.6,22.3,11.5c1.9,3,3,6.1,3.6,8.5c-0.7-0.3-1.5-0.5-2.4-0.5h0c-1.5,0-2.8,0.5-3.7,1.3 c-0.7-4.3-3-8.5-6-11.9c-2.9-3.2-6.5-5.8-10.4-6.8c-1-0.3-2.1-0.5-3.4-0.5l0,0c0,0,0,0,0,0l0,0c0,0,0,0,0,0c0,0,0,0,0,0 c-0.1,0-0.3,0-0.4,0c-0.2,0-0.3,0-0.5,0c-4.7,0.3-9.3,3.2-12.7,7.2c-3,3.4-5.1,7.7-5.8,12c-0.9-0.8-2.2-1.3-3.5-1.3h0 c-1,0-2,0.3-2.8,0.7c0.6-2.4,1.7-5.7,3.6-8.8C263.5,236.8,270,231.2,282.3,231.2z M275.3,221l5.5,8.3v0.1c-1.6,0.1-3.1,0.2-4.5,0.5 v-3.4h-1.8v3.7c-1.6,0.4-3.2,0.9-4.6,1.5v-2.5L275.3,221z M270,203.9c0-1.1,1-2.1,2.3-2.1c1.2,0,2.2,1,2.2,2.1v15.2L270,226V203.9z M280.8,202.7v23.4l-4.6-7v-15.2c0,0,0,0,0,0c0-1.1,1-2.1,2.5-2.1C279.6,201.8,280.4,202.2,280.8,202.7z M275.4,185l5.4,14.8v0.7 c-0.6-0.3-1.3-0.5-2.1-0.5c-1.3,0-2.6,0.6-3.4,1.5c-0.7-0.9-1.9-1.5-3.1-1.5c-0.8,0-1.6,0.3-2.3,0.7v-0.6L275.4,185z M280.8,175.6 v19.1l-5.4-14.8L270,195v-19.4H280.8z M278,130.6l3.2,4.9v14.2l-2.3,3.6V141h1.7v-1.8h-1.7v-3.4h-1.7v3.4h-1.5v1.8h1.5v12.2 l-2.3-3.6v-14.2L278,130.6z M281.3,132.3l-3.2-4.9l-3.2,4.9v-19.7c2.2,1.3,4.3,2.7,6.4,4.2V132.3z M285.4,156.4v17.4H283v-14.5 l0.8-1.3l-1.7-2.7l-1.7,2.7l0.8,1.3v14.5h-2.3v-17.4l3.2-4.9L285.4,156.4z M286.2,130.6l3.2,4.9v14.2l-2.3,3.6V141h1.6v-1.8h-1.6 v-3.4h-1.8v3.4h-1.6v1.8h1.6v12.2l-2.3-3.6v-14.2L286.2,130.6z M289.4,132.3l-3.2-4.9l-3.2,4.9V118c2.2,1.6,4.3,3.2,6.4,4.9V132.3z M289,179.8l-5.5,15.3v-19.4h11.1v19.5L289,179.8z M292,200c-1.3,0-2.4,0.6-3.1,1.5c-0.8-0.9-2-1.5-3.4-1.5c-0.7,0-1.4,0.2-2.1,0.5 v-0.4l5.5-15.3l5.6,15.4v0.6C293.8,200.3,292.9,200.1,292,200z M289.8,219.1v-15.2c0,0,0,0,0,0c0-1.2,1-2.1,2.2-2.1 c0.6,0,1.3,0.3,1.8,0.7c0.4,0.3,0.6,0.8,0.7,1.2v22.7L289.8,219.1z M283.5,226.2v-23.4c0.4-0.5,1.2-0.9,2.1-0.9c1.5,0,2.5,1,2.5,2.1 v15.2L283.5,226.2z M288.1,226.5v3.4c-1.5-0.2-3-0.4-4.7-0.4v-0.1l5.5-8.3l5.6,8.5v2.2c-1.4-0.6-3-1.1-4.7-1.5v-3.8H288.1z M291.2,149.7v-25.3c1.1,1,2.3,2,3.4,3v27.3L291.2,149.7z M294.5,157.8v16h-3.4v-14.5l0.8-1.3l-1.7-2.7l-1.7,2.7l0.8,1.3v14.5h-2.3 v-17.4l3.2-4.9L294.5,157.8z M270,154.3v-44.5c1,0.6,2.1,1.2,3.1,1.8v38.1L270,154.3z M274,151.5l3.2,4.9v17.4h-2.3v-14.5l0.8-1.3 l-1.7-2.7l-1.7,2.7l0.8,1.3v14.5H270v-16.4L274,151.5z M209.8,376.2c-38.2,0-73.2-13.8-100.3-36.6h6.8l4.9,4.1h31.7l4.5-4.1h7.1 c14.1,5.4,29.4,8.3,45.3,8.3c16,0,31.2-2.9,45.3-8.3h7l4.5,4.1h31.3l4.9-4.1h7.3C283,362.5,248,376.2,209.8,376.2z M162.5,331v-15.7 l2-3.6v21.1L162.5,331z M113.2,252.4v77.8h-2.6V255C110.7,253.7,111.5,252.7,113.2,252.4z M116.9,225.1l5.3,8 c-1.7,1-3.1,2.1-4.4,3.3v-4.2H116v5.9c-1,1.1-1.8,2.3-2.5,3.4c-1.2,2-2.1,4-2.8,5.8v-12.7L116.9,225.1z M111.4,202.5 c0.5-0.4,1.2-0.7,2-0.7c1.5,0,2.6,1.1,2.6,2.1v19.3l-5.4,8.3v-27.6C110.6,203.4,110.9,202.9,111.4,202.5z M115.8,181.9l-5.1,14.2 v-53.2c1.7-2.1,3.4-4.2,5.1-6.2V181.9z M122.3,200.7c-0.7-0.4-1.5-0.7-2.3-0.7c-1.3,0-2.4,0.6-3.1,1.5c-0.8-0.9-2.1-1.5-3.4-1.5 c-0.9,0-1.8,0.3-2.6,0.7l5.7-15.9L122.3,200.7z M122.4,195.8l-4.8-13.3v-47.7c1.6-1.7,3.2-3.3,4.8-4.9V195.8z M122.4,230.3l-4.6-7 v-19.3c0-1.2,1-2.1,2.2-2.1c0.6,0,1.2,0.3,1.7,0.7c0.4,0.4,0.7,0.9,0.7,1.5V230.3z M157.9,271.9l1.9-1.5v2.9L157.9,271.9z M157.1,276.7l-2.7-2.1l2.7-2.1l2.6,2v0.2L157.1,276.7z M157.9,277.2l1.9-1.5v2.9L157.9,277.2z M157.1,282.1l-2.7-2.1l2.8-2.2l2.6,2 v0.1L157.1,282.1z M159.4,283.9l-1.6-1.2l2-1.5v0.8C159.8,282.7,159.6,283.3,159.4,283.9z M157.1,327.1v-37c0.1-0.1,0.2-0.1,0.3-0.2 c0.9-0.5,1.8-1.1,2.4-1.6v39.2C159.2,327.4,158.2,327.2,157.1,327.1z M144.3,326.8c0.2,0,0.5,0.1,0.8,0.1h0c0.8,0,1.9-0.2,3.1-0.9 c0.1,0,0.2,0,0.3-0.1c0,0,0.1,0,0.2,0.1c0.2,0.1,0.4,0.3,0.8,0.6c0.6,0.6,1.5,0.8,2.6,1.1c2.3,0.7,5.6,1.1,7.2,1.4c0,0,0,0.1,0,0.1 c-0.1,0.3-0.1,0.3-0.2,0.4c-0.4,0.2-0.9,0.2-1.5,0.2c-0.6,0-1.2-0.1-1.9-0.1c-2.3-0.1-4.7-0.3-5.4-0.5c-0.2-0.1-0.4-0.1-0.6-0.1 c-1.5,0-4.9,0.5-5.8,0.6c-0.1-0.1-0.3-0.1-0.3-0.6c0,0,0-0.1,0-0.1C143.3,328.5,143.9,327.5,144.3,326.8z M143.8,297.3 c0.2,0.7,0.7,1.3,1.1,1.9c0.2,0.2,0.4,0.5,0.5,0.7l-1.7,1.2c-0.1-1.3-0.4-2.5-0.8-3.4c-0.1-0.1-0.2-0.2-0.3-0.3H143.8z M141.4,295.6 l2.2-0.9v0.9H141.4z M140,305c-3.1,1-8.1,2.1-8.4,2.1h0c-0.1,0-0.2,0-0.3-0.1c-0.1-0.1-0.3-0.3-0.3-0.9c1.2-0.2,4.4-0.8,6.1-1.2 c1.5-0.4,3.7-1,5.1-1.4c0,0.3-0.1,0.6-0.1,0.8C141.8,304.4,141,304.8,140,305z M141.1,317.1l-0.6-0.1l-0.9-10 c0.6-0.2,1.2-0.4,1.7-0.5c0.1,0,0.2-0.1,0.3-0.1c0,1.2-0.1,3-0.1,4.9C141.3,313.3,141.2,315.5,141.1,317.1z M138.1,324.9 c0.3,0,0.6,0.1,0.9,0.1c0.5,0,1,0,1.5-0.4c0.2-0.1,0.4-0.3,0.6-0.5v6.1h-3V324.9z M140.4,321.6c-0.1,0.3-0.1,0.5-0.2,0.7 c-0.2,0.5-0.3,0.6-0.8,1h0c0,0-0.2,0.1-0.5,0.1c-0.1,0-0.1,0-0.2,0l-0.2-2L140.4,321.6z M133.3,323.6c0.4,0.1,0.7,0.2,0.8,0.2 c0.1,0,0.2,0.1,0.5,0.2h0c0.4,0.2,1.1,0.4,1.8,0.5v5.7h-3V323.6z M135.9,308c0.5-0.1,1-0.2,1.5-0.4c0.1,0,0.3-0.1,0.4-0.1l0.8,9.2 l-0.8-0.1L135.9,308z M136,316.3l-0.9-0.1c-0.2-0.5-0.5-1.3-0.9-2.3c-0.5-1.5-1.1-3.2-1.3-4.1c-0.1-0.4-0.1-0.8-0.2-1 c0.4-0.1,0.9-0.2,1.4-0.3L136,316.3z M122.6,315.3c0.2,0.1,0.5,0.2,0.8,0.3c0.6,0.2,1.1,0.3,1.6,0.3c1.3,0,2.4-0.3,3.6-0.3 c0.3,0,0.6,0,0.9,0.1c1.2,0.2,2.3,0.6,3,1.1c0.4,0.2,0.7,0.4,0.9,0.6l0.1,1.5c-2.6-0.6-8.7-2.2-11.1-2.7 C122.5,315.7,122.6,315.5,122.6,315.3z M126.8,283.7C126.8,283.8,126.8,283.8,126.8,283.7L126.8,283.7l0,30.2 c-0.6,0.1-1.2,0.2-1.7,0.2c-0.4,0-0.7,0-1.1-0.2c-0.1,0-0.2-0.1-0.2-0.1v-61.4c0.8,0.1,1.4,0.4,1.9,0.8c0.7,0.5,1.1,1.2,1.1,1.9v22 c-0.4,0.8-0.5,1.7-0.6,2.7C126.2,281.1,126.5,282.6,126.8,283.7z M136.3,251.7C136.3,251.6,136.3,251.6,136.3,251.7 c-1.1-0.7-2.4-1-3.9-1h0c-1.5,0-2.8,0.5-3.9,1.2c0-3.9,0.3-7.8,1.2-10.9c1.1-3.6,2.9-6,6.6-6.4V251.7z M133.3,254.7v-2.2 c0.8,0.1,1.5,0.3,2,0.7c0.4,0.2,0.6,0.5,0.8,0.8C135.1,254,134.2,254.3,133.3,254.7z M128.5,260.8v-5.7c0-0.7,0.4-1.4,1.1-1.9 c0.5-0.4,1.2-0.7,2-0.8v3.3c-0.4,0.3-0.7,0.6-1.1,0.9C129.4,257.8,128.8,259.3,128.5,260.8z M139,256.1l0.3,0.1l0.3-0.1 c0.6-0.2,1.1-0.3,1.4-0.3c0.5,0,0.9,0.1,1.6,0.6c0.2,0.1,0.4,0.4,0.4,0.8c-0.8-0.2-1.8-0.3-2.6-0.3c-0.3,0-0.5,0-0.8,0l0.1,1.8l0,0 c0.2,0,0.5,0,0.7,0c0.8,0,1.7,0.1,2.3,0.2c-0.2,0.3-0.4,0.5-0.8,0.6l-0.2,0.1c-0.4-0.1-0.8-0.1-1.2-0.1c-0.4,0-0.7,0-0.9,0v1.7 c0.3,0,0.6,0,0.9,0c0.2,0,0.4,0,0.6,0c-0.4,1.8-1,4.2-2.4,5.4c-1.5,1.4-2.3,1.5-2.8,1.6c-0.1,0-0.1,0-0.2,0l-0.6-0.1l-0.3,0.5 c-0.1,0.3-0.7,0.8-1.4,1c0,0,0,0,0,0c0-0.5,0.1-1.2,0.6-2.1l-1.5-0.8c-0.6,1.1-0.8,2.1-0.8,2.9c0,0.1,0,0.3,0,0.4c0,0,0,0-0.1,0 c-0.2,0-0.5,0-0.7-0.1c0-0.1,0-0.3,0-0.5c0-0.9,0.2-2.1,0.8-3.1l-1.4-1c-0.9,1.2-1.1,2.6-1.1,3.7c-0.4-0.4-0.5-1-0.5-1.7 c0-1,0.4-2.1,0.9-2.6l0.2-0.3l0-0.4c0-0.1,0-0.2,0-0.3c0-2.4,0.4-4.7,1.8-6.1c1.1-1.2,3-2.3,5-2.2 C137.5,255.6,138.3,255.8,139,256.1z M141.1,252.4v1.7l0,0c-0.5,0-1,0.1-1.6,0.2c-0.4-0.2-0.8-0.3-1.2-0.4c0.2-0.3,0.4-0.6,0.8-0.9 C139.6,252.8,140.3,252.5,141.1,252.4z M145.8,251.9c-1-0.8-2.4-1.2-3.9-1.2h0c-1.4,0-2.8,0.3-3.8,1c0,0,0,0,0,0v-17.2 c3.7,0.3,5.5,2.6,6.6,6.3C145.6,243.9,145.8,247.9,145.8,251.9z M151.5,250.6L151.5,250.6c-1.5,0-2.9,0.5-3.9,1.3 c0-4-0.2-8.1-1.2-11.6c-0.3-1.2-0.8-2.3-1.4-3.3c1.7,1.1,3.3,2.5,4.7,4.2c2.6,3,4.6,6.8,5.3,10.5C154,251,152.8,250.6,151.5,250.6z M155.4,268.3h-3v-15.9c0.8,0.1,1.5,0.4,2,0.8c0.7,0.5,1.1,1.2,1.1,1.9V268.3z M153.6,279.4l-2.7-2.1l2.8-2.2l2.7,2.1L153.6,279.4z M155.4,283.4c-0.4-0.2-0.8-0.3-1.2-0.3c-0.3,0-0.6,0-0.9,0.1c-0.4,0.1-0.9,0.3-1.4,0.5l-1.2-0.9l2.9-2.3l2.7,2.1L155.4,283.4z M156.6,285.2C156.6,285.1,156.6,285.1,156.6,285.2c0-0.5-0.2-0.9-0.4-1.2l1-0.7l1.8,1.3C158.1,284.6,157.3,284.8,156.6,285.2z M150.5,311.1l1.7-1.3c0,0.4-0.2,0.9-0.3,1.7L150.5,311.1z M145.7,312.9c-0.1-0.4-0.2-0.8-0.4-1.2l6.2-4.9c0.2,0.3,0.3,0.6,0.5,1 l-5.3,4.1l4.8,1.2c-0.1,0.3-0.2,0.7-0.3,1L145.7,312.9z M150.6,321l0,4.3c-0.5-0.4-0.9-0.7-1.3-0.9 C149.6,323.6,150.1,322.4,150.6,321z M148.8,315.4l1.8,0.4c-0.2,0.8-0.5,1.5-0.8,2.2c-1,2.8-2,5.4-2.3,6.3c-0.1,0.1-0.2,0.1-0.4,0.2 L148.8,315.4z M145.4,309.4l-1.3,1c-0.3-0.3-0.6-0.5-0.9-0.8c0-0.8,0-1.6,0.1-2.2L145.4,309.4z M147.7,307.5l-0.9,0.7l-3.3-3.1 c0.1-0.1,0.1-0.2,0.2-0.3c0.2-0.5,0.2-1.1,0.2-1.8l0.1-0.1L147.7,307.5z M146.6,301.2c1,1.1,2.9,3.3,3.8,4.3l-1.2,1l-3.7-4.4 L146.6,301.2z M145.3,294l0.5-0.2v3.8c-0.3-0.5-0.5-1-0.5-1.1V294z M140.3,294.1l0.5-1.5l7.6-2.7l0.3,0.8L140.3,294.1z M136.8,300.3 c-1.5,0.4-4,0.9-5.5,1.2c0.3-1.5,0.7-2.7,1.2-3.6c0.3-0.5,0.4-1,0.4-1.5l5.8,0l0.3,0.2h0c0.2,0.1,0.5,0.3,0.8,0.5 c0.7,0.5,1.5,1.1,1.7,1.5c0.1,0.1,0.1,0.2,0.1,0.3C140.4,299.2,138.3,299.9,136.8,300.3z M131,303.3c1.3-0.3,4.3-0.9,6.2-1.3 c1.6-0.4,3.6-1,4.8-1.4c0,0.3,0.1,0.7,0.1,1c-1.2,0.4-3.9,1.2-5.5,1.5c-1.5,0.4-4.3,0.9-5.7,1.2C130.9,304,130.9,303.7,131,303.3z M128.5,288.6c0.3,0.7,0.6,1.5,0.9,2.2c0.7,1.9,1.4,3.8,1.6,4.2c0,0.2,0.1,0.5,0.1,0.9c0,0.5-0.1,1-0.2,1.2c-1.1,2-1.8,4.8-1.8,8.5 c0,1.3,0.3,2.2,0.9,2.7c0.3,0.3,0.7,0.5,1,0.6c0,0.3,0.1,0.7,0.2,1.2c0.2,1.2,0.9,3.1,1.5,4.7c-0.8-0.4-1.8-0.7-2.8-0.9 c-0.4-0.1-0.7-0.1-1.1-0.1c-0.1,0-0.1,0-0.2,0V288.6z M140.1,288.2c0.1,0.1,0.2,0.2,0.3,0.3l-2,5.8c-0.5-0.3-1.2-0.7-1.8-1.1 c-0.1-0.1-0.2-0.1-0.3-0.2L140.1,288.2z M134.7,292c-0.6-0.4-1.2-0.8-1.5-1l4.8-4.8c0.1,0.1,0.2,0.2,0.3,0.3 c0.2,0.2,0.3,0.3,0.5,0.5L134.7,292z M130.4,288.2l5.7-4.2c0.3,0.3,0.5,0.6,0.8,0.9l-4.9,4.8C131.4,289.1,130.8,288.5,130.4,288.2z M131.8,292c0.7,0.7,2.3,1.7,3.9,2.7l0,0l-3,0l0-0.1C132.7,294.5,132.3,293.4,131.8,292C131.7,292,131.7,292,131.8,292z M143.8,262 c0.1,0.1,0.1,0.1,0.1,0.1c0,0.1-0.1,0.5-0.3,1.1c0,0.1,0,0.1,0,0.1c-0.8,0.3-1.2,0.9-1.2,1.6c0.4-0.1,0.8-0.2,1.6-0.2 c0.2,0.4,0.4,0.9,0.6,1.2c0,0,0,0.1,0,0.1c-0.1,0-0.1,0.1-0.2,0.2c0,0-0.1,0.1-0.1,0.1l-1.4,0.7c0.2,0.3,0.2,0.6,0.2,0.9 c0,0.5-0.2,1-1.1,1.8l1.1,1.4c0.1-0.1,0.2-0.2,0.3-0.2c0.1,0.2,0.1,0.3,0.2,0.4c0.1,0.2,0.1,0.2,0.1,0.2c0,0,0,0,0,0 c-0.1,0-0.4,0.1-0.6,0.1h-0.3c-0.2,0-0.2,0-0.4,0c-0.3,0-0.6,0-2.6,0.2l0,0c-0.2,0-0.3,0-0.5,0c0,0,0,0-0.1,0 c-0.2-0.1-0.4-0.3-0.6-0.5c0,0,0,0,0,0c-0.2-0.2-0.4-1-0.7-1.8c0.6-0.3,1.4-0.8,2.2-1.6c2.1-2,2.6-5.3,3.1-6.9 C143.3,261.4,143.6,261.8,143.8,262z M145.8,264.8c-0.1-0.2-0.2-0.5-0.3-0.7c-0.1-0.2-0.2-0.4-0.2-0.5c0,0,0-0.1,0-0.1 c0.1-0.4,0.3-0.7,0.3-1.4c0-0.4-0.1-0.8-0.4-1.1c-0.3-0.4-0.6-0.8-0.9-1.2c0.4-0.7,0.6-1.5,0.6-2.2c0-1-0.4-2.1-1.3-2.7 c-0.3-0.2-0.5-0.3-0.8-0.4v-2.1c0.8,0.1,1.4,0.4,1.9,0.8c0.7,0.5,1.1,1.2,1.1,1.9V264.8z M143.3,286.8l-1.7,0.4 c-0.1-0.1-0.3-0.3-0.6-0.6l2.1-0.9L143.3,286.8z M145.1,270.7c-0.1-0.2-0.2-0.3-0.2-0.6c0-0.2-0.1-0.5-0.1-0.8c0-0.2,0-0.5,0.1-0.7 c0-0.1,0-0.2,0.1-0.2c0,0,0,0,0-0.1c0.3-0.4,0.4-0.5,0.7-0.9c0.1-0.1,0.1-0.1,0.2-0.2v18.8l-0.9,0.2l-0.4-2v-0.2 c0-1.1-0.1-4.5-1.8-6.7v-3.9c0,0,0.1,0,0.1,0c0.3,0,0.7,0,1.2-0.1c0.4-0.1,1-0.5,1.1-1.2c0-0.2,0.1-0.4,0.1-0.5 C145.3,271.3,145.2,270.9,145.1,270.7z M147.7,288.3l-6.2,2.2l0.5-1.6l5.4-1.4L147.7,288.3z M149.2,282.8l-1.4,1 c-0.2-0.6-0.3-1.2-0.3-1.9v-0.4L149.2,282.8z M150.6,291.9v11.3c-1.1-1.2-2.4-2.7-3-3.4v-6.7L150.6,291.9z M148.7,285.4 c-0.2-0.2-0.3-0.5-0.4-0.7l1.7-1.3l1,0.8c-0.6,0.3-1.2,0.6-1.7,0.9C149,285.1,148.8,285.2,148.7,285.4z M150.1,277.8l2.7,2.1 l-2.9,2.2l-2.4-1.8v-0.6L150.1,277.8z M149.4,277.3l-1.8,1.4v-2.8L149.4,277.3z M150.2,272.5l2.7,2.1l-2.8,2.2l-2.5-2v-0.2 L150.2,272.5z M149.5,271.9l-1.9,1.5v-3L149.5,271.9z M151.9,270.1l-1.6,1.3l-1.7-1.3H151.9z M150.6,268.3h-3v-13.2l0,0 c0-0.7,0.4-1.4,1.1-1.9c0.5-0.4,1.2-0.7,2-0.8V268.3z M135,271c0.4-0.2,0.8-0.6,1.1-0.9c0.1,0.3,0.3,0.7,0.4,1 c0.1,0.2,0.1,0.4,0.2,0.5C136,271.5,135.4,271.3,135,271z M136.6,273.5c0.8,0.2,1.6,0.2,2.4,0.2c0.4,0,0.7,0,1,0l-0.2,1.8 c-0.1,0-0.2,0-0.2,0.1c-0.5,0.1-1.2,0.2-1.9,0.2c-0.5,0-1,0-1.4-0.1c-0.6-0.1-1.3-0.8-1.8-1.6c-0.2-0.4-0.4-0.8-0.5-1.1 c-0.1-0.1-0.1-0.2-0.1-0.3v-0.1C134.4,272.8,135.4,273.2,136.6,273.5z M128.5,274.4v-3.6c0.2,0.2,0.4,0.3,0.6,0.4 c0.8,0.5,1.8,0.6,2.7,0.6c0.1,0,0.1,0,0.2,0v0.1c-1.2,0.3-2.2,1-2.3,1c-0.1,0.1-0.2,0.1-0.3,0.2 C129.5,273.2,129.1,273.6,128.5,274.4z M130.8,274.4c0.2-0.1,0.4-0.2,0.7-0.3c0.3-0.1,0.6-0.2,0.9-0.4c0.1,0.3,0.3,0.7,0.6,1.1 c0.6,1,1.5,2.1,2.9,2.4c0.6,0.1,1.2,0.2,1.8,0.2c1.1,0,2.1-0.2,2.7-0.3c0.3,0.3,0.6,0.8,1.1,1.3c1.2,1.4,1.4,4.4,1.4,5.5l-3.2,1.3 c0,0-0.1-0.1-0.1-0.1c-1.3-1.2-2.7-3-5.6-6.7l-1.4,1.1c1,1.2,1.8,2.2,2.4,3l-5.4,4c-0.2-0.6-0.4-1.1-0.5-1.2c-0.1-0.1-0.4-1-0.6-2 c-0.3-1.1-0.5-2.4-0.5-3.5c0-0.9,0.2-1.6,0.4-2C129.6,276,130.5,274.8,130.8,274.4z M144.8,318.5c0-1.9,0.4-2.9,0.7-3.8l1.6,0.4 l-1.9,10.1c-0.1,0-0.1,0-0.2,0c-0.1,0-0.1,0-0.2,0c0-0.4,0-1,0-1.6C144.9,321.9,144.8,319.9,144.8,318.5z M154.6,289.4 C154.6,289.4,154.6,289.4,154.6,289.4c-0.4,0.2-1.8,0.4-2.9,0.5c-0.6,0.1-1.1,0.1-1.5,0.1l-1-2.5c0-0.2,0.1-0.6,0.9-1.1 c0.9-0.5,2.5-1.2,3.6-1.5c0.2,0,0.3-0.1,0.4-0.1c0.3,0,0.5,0.1,0.6,0.2c0,0,0,0,0,0c0,0-0.1,0.1-0.2,0.1c-0.6,0.3-1.2,0.5-1.7,0.7 c-0.2,0.1-0.5,0.2-0.7,0.4c-0.2,0.1-0.6,0.5-0.6,1c0,0.1,0,0.2,0,0.3c0.1,0.3,0.3,0.6,0.5,0.7c0.3,0.1,0.5,0.1,0.7,0.1 c0.9,0,1.7-0.5,2.5-0.8c1-0.5,3-1.3,3.5-1.3c0.1,0.1,0,0,0.1,0.1c0,0.1-0.1,0.3-0.4,0.6c-0.2,0.2-1.2,0.8-2,1.3 C155.6,288.9,154.8,289.3,154.6,289.4z M152.3,305.1v-13.5c0.6-0.1,1.1-0.1,1.7-0.2c0.5-0.1,0.9-0.2,1.4-0.4v35.8 c-1-0.2-2-0.4-2.9-0.7c0,0-0.1,0-0.1,0l0-10.1c0.9-2.7,1.6-5.1,1.6-6.4C154,307.2,152.9,305.7,152.3,305.1z M156.4,271.9l-2.7,2.1 l-2.7-2.1l2.3-1.8h0.8L156.4,271.9z M157.1,268.3v-13.2c0-0.7,0.4-1.4,1-1.9c0.4-0.4,1-0.6,1.6-0.8v15.9H157.1z M158.7,270.1 l-1.6,1.2l-1.6-1.2H158.7z M119.4,251.6c0.8-3.7,2.8-7.5,5.5-10.5c1.4-1.6,2.9-2.9,4.6-4c-0.6,1-1.1,2.1-1.4,3.3 c-1,3.4-1.2,7.5-1.3,11.5c-1-0.8-2.4-1.2-3.9-1.3h0C121.6,250.6,120.4,251,119.4,251.6z M116.6,317.9c-0.2,0.9-1.1,4.2-1.1,6.2 c0,0.1,0,0.1,0,0.2c0,1.8,0.5,3.3,1.6,4.5c0.6,0.6,1.2,1,1.8,1.4H115v-77.7c1.5,0.4,2.3,1.4,2.3,2.7v57.4c-0.4,0.3-0.7,0.6-0.9,1 c-0.3,0.5-0.3,0.9-0.3,1.4C116,316.1,116.4,317.4,116.6,317.9z M119.9,325.6l1,3.6c-0.7-0.2-1.6-0.6-2.5-1.6 c-0.7-0.7-1.1-1.8-1.1-3.2c0-0.1,0-0.1,0-0.2c0-1,0.3-2.5,0.6-3.8c0.3-1.3,0.6-2.3,0.6-2.3c0-0.2,0-0.4,0-0.5c0,0-0.1-0.4-0.3-0.9 c-0.1-0.5-0.3-1.2-0.3-1.7c0-0.3,0.1-0.5,0.1-0.5c0.4-0.5,0.4-0.5,0.8-0.6h0c0.3,0,0.7,0.1,1.4,0.3c0.4,0.2,0.7,0.3,1,0.4 c-0.2,0.5-0.3,1.1-0.3,1.9c0,0.8,0.1,1.7,0.5,2.8c-0.1,0.2-0.2,0.4-0.2,0.6c-0.2,0.9-1.1,5.2-1.1,5.2 C119.8,325.3,119.8,325.4,119.9,325.6z M122,323.3v3.6l-0.4-1.6C121.7,324.9,121.9,324.1,122,323.3z M120.6,312.6 c-0.6-0.2-1.1-0.4-1.6-0.4v-57c0-0.7,0.4-1.4,1.1-1.9c0.5-0.4,1.2-0.7,2-0.8v60.7C121.7,313,121.3,312.8,120.6,312.6z M126.8,321.7 v8.5h-3v-9.6c0.1,0,0.2,0.1,0.2,0.1C124.8,321,125.7,321.4,126.8,321.7z M131.6,323.2v7.1h-3v-8 C129.6,322.6,130.7,322.9,131.6,323.2z M130.7,321.1c-2.1-0.6-4.6-1.4-5.9-2c-0.8-0.4-1.4-0.6-2-0.6c-0.1-0.3-0.1-0.5-0.2-0.7 c2.9,0.7,9.2,2.3,11.2,2.8l0.1,1.4C133.2,321.8,132,321.5,130.7,321.1z M137,322.9c-0.3-0.1-0.5-0.1-0.8-0.2 c-0.2-0.1-0.4-0.1-0.6-0.2l-0.4-4.6l5.6,1c0,0.3-0.1,0.5-0.1,0.7c0,0.1,0,0.2-0.1,0.3l-4.1-0.7L137,322.9z M143.1,323.5 c0,0.6,0,1.1,0,1.5c0,0.2,0,0.3,0,0.4c0,0,0,0,0,0.1c-0.1,0.1-0.1,0.2-0.2,0.3V317c0.1-1.5,0.2-3.3,0.3-5.1c0.1,0.1,0.2,0.2,0.3,0.3 l0,0l0,0c0.1,0.1,0.2,0.2,0.3,0.3c0.3,0.4,0.3,0.6,0.3,0.9c0.1,0.7-0.9,2.2-0.9,5.1C143.1,319.9,143.1,322,143.1,323.5z M154.6,201.8c1.2,0,2.3,1,2.3,2.1v19.3l-4.6,7.1v-26.5C152.3,202.8,153.4,201.8,154.6,201.8z M157.1,182.5l-4.8,13.3v-87.4 c1.6-0.8,3.2-1.6,4.8-2.4V182.5z M158.9,182v-76.8c1.6-0.7,3.3-1.4,5-2.1v92.5L158.9,182z M163.8,200.8c-0.7-0.5-1.7-0.8-2.6-0.8 c-1.4,0-2.6,0.6-3.4,1.5c-0.8-0.9-1.9-1.5-3.2-1.5c-0.8,0-1.5,0.2-2.2,0.6l5.7-15.7L163.8,200.8z M158.6,223.2v-19.3 c0-1.1,1.1-2.1,2.5-2.1c0.7,0,1.4,0.3,1.9,0.7c0.5,0.4,0.7,0.9,0.7,1.5v27.2L158.6,223.2z M156.9,232.5v4c-1.3-1.2-2.7-2.3-4.4-3.3 l5.3-8.1l6.1,9.2v12.9c-0.6-1.8-1.5-3.7-2.7-5.6c-0.7-1.1-1.5-2.3-2.5-3.3v-5.8H156.9z M161.5,268.3v-15.8c0.5,0.1,1,0.4,1.4,0.7 c0.6,0.5,0.9,1.1,1,1.7v52.4l-2.3,4.2v-29.4c0-0.1,0-0.1,0-0.2L161.5,268.3L161.5,268.3z M137.3,231.2c12.2,0,18.7,5.6,22.4,11.4 c2,3.1,3.1,6.4,3.6,8.8c-0.8-0.5-1.7-0.7-2.6-0.8v0h-0.2v0c-1.3,0.1-2.6,0.6-3.5,1.4c-0.7-4.3-2.9-8.6-5.9-12 c-3.4-4-7.9-6.9-12.7-7.2c-0.2,0-0.4,0-0.6,0c-0.1,0-0.2,0-0.3,0h-0.1l0,0h-0.1l0,0c-0.7,0-1.4,0.1-2,0.2c-4.4,0.7-8.5,3.4-11.7,7.1 c-3,3.4-5.3,7.7-6,11.9c-0.9-0.8-2.2-1.3-3.7-1.3h0c-0.9,0-1.8,0.2-2.5,0.5c0.6-2.4,1.7-5.5,3.6-8.6 C118.6,236.8,125.1,231.2,137.3,231.2z M130.5,221l5.5,8.3v0.1c-1.6,0-3.2,0.2-4.6,0.5v-3.4h-1.8v3.8c-1.7,0.4-3.2,0.9-4.6,1.5v-2.4 L130.5,221z M127.3,201.8c1.3,0,2.3,1,2.3,2.1v15.2l-4.6,7v-22.4C125.1,202.7,126.1,201.8,127.3,201.8z M136,202.7v23.4l-4.6-7 v-15.2c0-1.1,1.1-2.1,2.5-2.1C134.8,201.8,135.6,202.2,136,202.7z M130.5,184.9L136,200v0.5c-0.6-0.3-1.3-0.5-2.1-0.5 c-1.4,0-2.6,0.6-3.4,1.5c-0.8-0.9-2-1.5-3.2-1.5c-0.8,0-1.6,0.3-2.3,0.7v-0.6L130.5,184.9z M136,175.6v19.3l-5.5-15.1l-5.5,15.2 v-19.3H136z M133.2,130.6l3.2,4.9v14.2l-2.3,3.6V141h1.7v-1.8h-1.7v-3.4h-1.8v3.4h-1.5v1.8h1.5v12.2l-2.3-3.6v-14.2L133.2,130.6z M136.5,132.3l-3.2-4.9l-3.2,4.9V123c2.1-1.7,4.2-3.4,6.4-4.9V132.3z M140.5,156.4v17.4h-2.3v-14.5l0.8-1.3l-1.7-2.7l-1.7,2.7 l0.8,1.3v14.5h-2.3v-17.4l3.2-4.9L140.5,156.4z M141.4,130.6l3.2,4.9v14.2l-2.3,3.6V141h1.6v-1.8h-1.6v-3.4h-1.8v3.4H139v1.8h1.6 v12.2l-2.3-3.6v-14.2L141.4,130.6z M144.6,132.3l-3.2-4.9l-3.2,4.9v-15.5c2.1-1.5,4.2-2.8,6.4-4.2V132.3z M144,179.7l-5.3,14.7 v-18.7h11v19.7L144,179.7z M147.2,200c-1.3,0-2.4,0.6-3.1,1.5c-0.8-0.9-2-1.5-3.4-1.5c-0.7,0-1.5,0.2-2.1,0.5v-1l5.3-14.7l5.7,15.6 v0.3C148.9,200.3,148.1,200,147.2,200z M145,219.1v-15.2h0c0-1.2,1-2.1,2.2-2.1c0.6,0,1.2,0.3,1.7,0.7c0.4,0.4,0.7,0.9,0.7,1.5h0 v22.2L145,219.1z M138.7,226.2v-23.4c0.4-0.5,1.2-0.9,2.1-0.9c1.5,0,2.5,1,2.5,2.1v15.2L138.7,226.2z M143.3,226.5v3.4 c-1.4-0.2-3-0.4-4.6-0.5v-0.1l5.5-8.3l5.5,8.3v2.4c-1.4-0.6-2.9-1.1-4.6-1.5v-3.8H143.3z M146.4,149.7v-38.1 c1.1-0.6,2.2-1.2,3.2-1.8v44.7L146.4,149.7z M149.6,157.6v16.2h-3.2v-14.5l0.8-1.3l-1.7-2.7l-1.7,2.7l0.8,1.3v14.5h-2.3v-17.4 l3.2-4.9L149.6,157.6z M125,154.5v-27.2c1.1-1,2.1-1.9,3.2-2.9v25.2L125,154.5z M129.1,151.5l3.2,4.9v17.4H130v-14.5l0.8-1.3 l-1.7-2.7l-1.7,2.7l0.8,1.3v14.5H125v-16.2L129.1,151.5z M121.5,340.5v-1.8h1.8V337h1.8v1.7h1.7v1.8H125v1.7h-1.8v-1.7H121.5z M130,340.5v-1.8h1.8V337h1.8v1.7h1.7v1.8h-1.7v1.7h-1.8v-1.7H130z M138.4,340.5v-1.8h1.7V337h1.8v1.7h1.7v1.8H142v1.7h-1.8v-1.7 H138.4z M110.6,335.6v-2.7h50l3,2.7H110.6z M146.9,340.5v-1.8h1.8V337h1.8v1.7h1.7v1.8h-1.7v1.7h-1.8v-1.7H146.9z M106.6,139.3 L106.6,139.3L106.6,139.3L106.6,139.3L106.6,139.3l0,6c-15.4,21.1-24.4,47-24.4,75.1c0,28.1,9.1,54,24.4,75.1v41.8 c-2.4-2.1-4.8-4.4-7.1-6.7c-28.2-28.2-45.7-67.2-45.7-110.3c0-43.1,17.4-82,45.7-110.3c24.4-24.4,56.8-40.7,92.9-44.7v28.6 c-1.4,0.2-2.7,0.4-4.1,0.6V73.7v0v0h0l-1.3-1.7l-1.3,1.7h0v0l0,0h0V95c-6.1,1.2-12.1,2.8-17.8,4.8v-4.6h0l-1.9-3.3l-2,3.3h0v6.1 c-3.9,1.5-7.8,3.2-11.5,5.1v-4.7l-2.7,4.3v1.7c-8.9,4.8-17.1,10.5-24.6,17.2v-4.7l-2.7,4.1v3c-4.2,3.9-8.1,8.1-11.7,12.6v-0.8h0 l-2-3.4L106.6,139.3z M106.6,188.5l-12.1,17.3V185l0,0v0l-1.3-2.2l-1.4,2.2l0,0h0v68.1h14.8v39.3C92.3,272,84,247.2,84,220.3 c0-26.8,8.4-51.7,22.7-72.1V188.5z M106.6,221.6l-5.3-8v-3.4h1.6v-1.8h-1.6v-1.6h-1.8v1.6h-1.6v1.8h1.6v3.4l-5.1,7.8v-12.5 l12.1-17.3V221.6z M106.6,228.8c-0.8-0.5-1.7-0.8-2.7-0.8c-1.4,0-2.6,0.6-3.4,1.5c-0.8-0.9-2-1.5-3.3-1.5c-1,0-1.9,0.3-2.7,0.8v-4.3 l6-9.1l6.1,9.3l0.1,0V228.8z M106.6,240.1h-5.3v-8.2c0-1.1,1.1-2.1,2.5-2.2c0.7,0,1.4,0.3,1.9,0.7c0.5,0.4,0.8,0.9,0.8,1.5h0V240.1z M97,246.6c0-1.9,1.5-3.4,3.4-3.4c1.9,0,3.4,1.5,3.4,3.4c0,1.9-1.5,3.4-3.4,3.4C98.5,250,97,248.4,97,246.6z M94.5,240.1v-8.2h0 c0-0.5,0.3-1.1,0.7-1.5c0.5-0.4,1.2-0.7,1.9-0.7c1.4,0,2.4,1,2.5,2.2v8.2H94.5z M98.5,242.7c-1.4,0.7-2.4,2.2-2.4,3.8 c0,1.7,1,3.1,2.4,3.8h-4v-7.7H98.5z M106.6,250.4h-4.3c1.4-0.7,2.4-2.1,2.4-3.8c0-1.7-1-3.1-2.4-3.8h4.4V250.4z M188.4,105.4v-9.1 c1.4-0.2,2.7-0.5,4.1-0.6v3.4L188.4,105.4z M197.9,108v4.2c-0.6-0.5-1.4-0.9-2.2-0.9c-1,0-1.9,0.5-2.5,1.3c-0.7-0.8-1.7-1.3-2.8-1.3 c-0.8,0-1.5,0.2-2.1,0.6v-3.3l5-7.7L197.9,108z M194.2,91.7c0-1.1,0.9-2,1.9-2c1,0,1.8,0.8,1.9,1.9c0,0,0,0,0,0h0v13.1l-3.7-5.7 V91.7z M194.2,86.8l4.6-11.9l4.6,11.8v1.1c0,0.1,0,0.1,0,0.2h0v0.6c-0.5-0.3-1.2-0.5-1.9-0.5c-1.1,0-2.1,0.5-2.7,1.3 c-0.7-0.8-1.6-1.3-2.7-1.3c-0.7,0-1.3,0.2-1.9,0.5V86.8z M194.2,65.1c3-0.3,6.1-0.5,9.2-0.6v17.3l-4.6-11.8L194.2,82V65.1z M199.7,104.8V91.6c0-1.1,0.9-1.9,1.9-1.9c1,0,1.9,0.9,1.9,2v7.5L199.7,104.8z M208.9,108v3.9c-0.5-0.3-1.2-0.5-1.9-0.6 c-1.1,0-2.1,0.5-2.7,1.3c-0.6-0.8-1.5-1.3-2.5-1.3c-0.8,0-1.5,0.3-2.1,0.8V108l4.6-7L208.9,108z M205.2,87.8c0.1-1,0.9-1.8,1.9-1.8 c1,0,1.9,0.9,1.9,2c0,0,0,0,0,0v16.9l-3.7-5.7V87.8z M205.2,81.6l4.5-11.6l4.6,11.7v3c-0.5-0.3-1.1-0.5-1.8-0.5 c-1.1,0-2.1,0.5-2.7,1.3c-0.7-0.8-1.6-1.3-2.7-1.3c-0.7,0-1.3,0.2-1.9,0.5V81.6z M205.2,64.4c1.5,0,3.1-0.1,4.6-0.1 c1.5,0,3,0,4.5,0.1v12.5l-4.6-11.7l-4.5,11.6V64.4z M210.7,104.6V87.9c0-1.1,0.8-2,1.8-2c0.9,0,1.7,0.8,1.8,1.9v11.3L210.7,104.6z M219.8,108v4.2c-0.6-0.5-1.4-0.9-2.2-0.9c-1,0-1.9,0.5-2.4,1.2c-0.6-0.8-1.6-1.2-2.6-1.2c-0.7,0-1.3,0.2-1.8,0.5v-4l4.5-6.8 L219.8,108z M216,91.7L216,91.7c0-1.1,0.9-2,1.9-2c1,0,1.8,0.8,1.9,1.8c0,0,0,0.1,0,0.1v13.1l-3.7-5.7V91.7z M216,87.9L216,87.9 c0-0.1,0-0.2,0-0.2v-0.9l4.6-11.9l4.6,11.8v1.8c-0.5-0.3-1.2-0.5-1.9-0.5c-1.1,0-2.1,0.5-2.7,1.3c-0.7-0.8-1.6-1.3-2.7-1.3 c-0.7,0-1.3,0.2-1.9,0.6V87.9z M216,64.5c3.1,0.1,6.2,0.3,9.2,0.6v16.7l-4.6-11.8L216,82V64.5z M221.5,91.5c0.1-1,0.9-1.8,1.9-1.8 c1,0,1.9,0.9,1.9,2v7.5l-3.7,5.7V91.7h0C221.5,91.6,221.5,91.6,221.5,91.5z M231.1,108.7v3.3c-0.6-0.4-1.4-0.6-2.1-0.6 c-1.1,0-2.1,0.5-2.8,1.3c-0.6-0.8-1.5-1.3-2.6-1.3c-0.8,0-1.5,0.3-2.1,0.8V108l4.6-7L231.1,108.7z M227,127.6V115c0,0,0,0,0,0 c0-1.1,0.9-2,2-2c0.5,0,1.1,0.2,1.5,0.6c0.4,0.4,0.6,0.9,0.6,1.4h0v12.5H227z M222,127.6V115h0c0-1.2,0.9-2,1.6-2 c0.4,0,0.8,0.2,1.1,0.5c0.3,0.4,0.5,0.9,0.5,1.4v12.6H222z M237.4,129.3v7.7H222v-7.7H237.4z M251.6,143.5L241.4,128v-16.5h0l0,0v0 h0l-1.1-1.9v-6.4h1.6v-1.8h-1.6v-1.6h-1.8v1.6h-1.6v1.8h1.6v6.4l-1.1,1.9h0v16.1h-3.6V96.8c6.1,1.2,12.1,2.8,17.8,4.8V143.5z M250.2,331v-15.7l2.1-3.7v21.2L250.2,331z M169.3,315.3V331l-2.1,1.8v-21.2L169.3,315.3z M172.1,279.8v38.7c0,0.1-0.1,0.1-0.1,0.1 v-4.1l-4.1-7.3v-27.5H172.1z M169.9,235.3c1.1,0,2.1,0.9,2.1,2v38.5h-4.2v-38.5C167.9,236.2,168.8,235.3,169.9,235.3z M173,211.4 l5.1,7.8v14.9c-0.6-0.4-1.3-0.6-2.1-0.6c-1.2,0-2.3,0.5-3.1,1.4c-0.7-0.9-1.8-1.4-3-1.4c-0.8,0-1.5,0.2-2.1,0.6v-14.9L173,211.4z M170,173.3c1.1,0,2.1,0.9,2.1,2v34.2l-4.2,6.5v-40.7C167.9,174.3,168.9,173.3,170,173.3z M173,160.1l5.1,7.8v4.3 c-0.6-0.4-1.4-0.7-2.2-0.7c-1.2,0-2.2,0.5-2.9,1.4c-0.7-0.8-1.8-1.4-3-1.4c-0.8,0-1.5,0.2-2.2,0.6v-4.3L173,160.1z M178.1,131.3 v33.4l-4.3-6.5v-5.1h1.6v-1.8h-1.6v-1.6h-1.8v1.6h-1.6v1.8h1.6v5.1l-4.2,6.5v-17.9L178.1,131.3z M185.7,127.6h-3.6v-16.1h0l0,0v0 l-1.1-1.9v-6.3h1.6v-1.8H181v-1.6h-1.8v1.6h-1.6v1.8h1.6v6.4l-1.1,1.9h0v16.7l-10.3,15.5v-42c5.8-2,11.7-3.7,17.8-4.8V127.6z M190.3,148.2v-3.2h1.6v-1.8h-1.6v-1.6h-1.8v1.6H187v1.8h1.6v3.2l-6.5,9.9v-19.3h15.4v20.3L190.3,148.2z M190.3,176.7v-10.5 c0-1.9,1.6-3.4,3.5-3.4c1,0,1.9,0.4,2.6,1c0.6,0.5,1,1.2,1.1,2l0,21.8L190.3,176.7z M194.7,192.6l-4.4-6.7v-6.1l7.2,11 C196.6,191.4,195.6,192,194.7,192.6z M197.7,202.9c-1,0.8-2,1.6-2.8,2.6v-10.8c0.9-0.7,1.8-1.3,2.8-1.9V202.9z M224.4,194.4v10.7 c-0.9-1-1.9-1.8-3-2.6v-10C222.4,193.1,223.4,193.7,224.4,194.4z M229.1,179.9v6.1l-4.3,6.7c-0.9-0.6-1.9-1.2-2.9-1.8v-0.1 L229.1,179.9z M223.1,163.8c0.7-0.6,1.6-1,2.6-1c1.9,0,3.5,1.5,3.5,3.4v10.5l-7.1,10.8V166C222,165.2,222.4,164.4,223.1,163.8z M237.4,157.9l-6.5-9.9v-3h1.6v-1.8h-1.6v-1.6h-1.8v1.6h-1.6v1.8h1.6v3.3l-7.1,10.9v-20.5h15.4V157.9z M180,327.8 c0.3-0.6,0.5-1,0.7-1.3c0.2-0.2,0.3-0.3,0.7-0.3c0.6,0,0.8,0,1.2,0.3c0.4,0.2,0.9,0.8,1.8,1.9c0.5,0.7,1.1,1.3,1.9,1.8h-8 C179.1,329.5,179.6,328.6,180,327.8z M189.9,279.8c0.8,0.5,1.6,0.8,2.4,1c-0.1,0.1-0.2,0.2-0.3,0.3c-1.7,1.4-3.5,3.5-4.8,7.9 c-0.9,2.9-2.6,9.4-5.1,14.9v-24H189.9z M184.4,239.8v25.6c-0.5,1.2-0.9,2.2-1,2.9c-0.2,0.5-0.2,1.1-0.2,1.6c0,2,0.9,4.1,2.3,5.9 h-3.4v-39C182.4,238.1,183.2,239.2,184.4,239.8z M182.1,224.2c0-5.2,0.8-10.1,2.3-14.3v22.3c-1.2,0.6-2,1.7-2.3,3L182.1,224.2 L182.1,224.2z M188.6,189.1v9.3c-2.8,3.6-5.1,7.9-6.5,12.9V199L188.6,189.1z M188.6,179.9v6.1l-6.5,9.9v-6.1L188.6,179.9z M182.1,165.9c0-1.6,1.5-3.1,3.3-3.1c1.8,0,3.2,1.4,3.2,3.1h0c0,0.1,0,0.2,0,0.3v10.5l-6.5,9.9L182.1,165.9L182.1,165.9z M189.5,163.2c-0.9-1.3-2.4-2.2-4.1-2.2c-1.2,0-2.4,0.5-3.3,1.2v-1l7.4-11.2l8,12.2v0.1c-1-0.9-2.3-1.4-3.7-1.4 C192,161,190.5,161.9,189.5,163.2z M193.2,196.1v11.6c-1.3,2-2.3,4.1-2.8,6.5V199C191.2,198,192.2,197,193.2,196.1z M190.3,196.4 v-7.3l3,4.5C192.3,194.5,191.3,195.4,190.3,196.4z M193.2,232.2c-1.4,0.7-2.3,2.1-2.3,3.8c0,1.1,0.4,2.1,1.1,2.8l0,0.1l1.3,3.7h0 v6.5c-1,1.6-1.9,3.1-2.8,4.7v-15.2h0v-1.3c0.1-0.4,0.2-0.9,0.2-1.3c0-0.5-0.1-0.9-0.2-1.3v-1.5h0v-10.8c0.5,2.2,1.5,4.4,2.8,6.3 V232.2z M216.5,272.9c-0.2,0.2-0.5,0.5-0.7,0.8l-1.3-0.1l-0.6,1.4l1,0.6c-0.2,0.6-0.4,1.3-0.4,1.9c0,0.5,0.1,1,0.2,1.5 c-0.1,0-0.1,0.1-0.2,0.1c-0.3,0.1-0.5,0.2-0.8,0.2c-0.6,0-1.1-0.3-1.6-0.7c-0.4-0.4-0.7-1-0.7-1.5c0-0.3,0.1-0.7,0.4-1l-1.2-1.3 c-0.5,0.4-1.1,0.6-1.7,0.6c-1.1,0-1.9-0.7-2-1.9c0-0.1,0-0.3,0-0.4c0.1-1,1.2-1.8,2.2-1.8c0.7,0,1.3,0.3,1.8,1.2l1.6-0.6 c-0.1-0.2-0.1-0.4-0.1-0.6c0-0.6,0.3-1.1,0.7-1.4c0.4-0.4,1-0.6,1.6-0.6c0.4,0,0.8,0.1,1.2,0.4c0.7,0.6,0.8,1,0.8,1.5 C216.9,271.9,216.6,272.5,216.5,272.9L216.5,272.9z M218.4,264.6c0.3,0.6,0.5,1.1,0.8,1.6c0.6,1.1,1.1,2,1.8,2.7 c0.2,0.2,0.4,0.4,0.7,0.6c-0.3,0.2-0.5,0.3-0.8,0.5c-0.2-1-0.8-2.6-2.4-3.6c0-0.2,0-0.4,0-0.7C218.4,265.4,218.4,265,218.4,264.6z M203.5,269.7c-0.5,0.4-1.1,0.7-1.4,1c-0.2,0.2-0.4,0.3-0.5,0.4c-0.1,0.1-0.2,0.1-0.3,0.3c-2.8,2.8-4.8,3.7-5.7,3.7 c-0.7,0-1.1-0.3-1.5-1.4c-0.1-0.1-0.1-0.4-0.2-0.8c0.7-0.9,1.9-2.8,3.4-4.7c1.7-2.2,3.7-4.5,4.8-4.9c1.5-0.7,2.1-2.1,2.8-3.3 c0.7-1.2,1.3-2.2,1.9-2.3c0.6-0.2,2.4-0.7,2.9-0.8c0.1,0.1,0.3,0.3,0.5,0.6l-1.9,0.8l0.7,1.6l2.1-0.9c0.1,0.2,0.2,0.5,0.3,0.7 c0,0,0,0,0,0l-2.1,0.9l0.7,1.6l2-0.8c0.1,0.2,0.1,0.5,0.2,0.7l-1.9,0.7l0.6,1.6l1.6-0.6c0,0.1,0,0.2,0,0.3c0,0.3,0,0.6-0.1,0.7 c0,0,0,0,0,0c-1,0.3-4.1,1.9-6,2.8l0,0C205.7,268.1,204.5,268.9,203.5,269.7z M202.7,272.4c0,0,0.1-0.1,0.1-0.1c0,0,0,0,0,0 c0,0.1-0.1,0.3-0.1,0.4c0,0.3-0.1,0.6-0.1,0.9c0,1.7,0.7,3.1,1.7,4.2l-3.5,0c-0.1,0-0.1,0-0.2,0c-0.2,0-0.4,0-0.6,0 C201.5,276.3,202.4,274.5,202.7,272.4z M198.8,263.8c-1,1-1.9,2.2-2.9,3.4c-0.7,0.9-1.4,1.9-2,2.7c0-0.6,0.1-1.3,0.2-2 C195.6,265.5,197.5,263.9,198.8,263.8z M204.7,257.1c-0.5,0.6-0.9,1.4-1.3,2.1c-0.5,1-1,1.8-1.5,2.3c0.7-1.7,1.5-3.9,2.3-6 L204.7,257.1z M206.3,242.5c-0.2,0.9-0.6,2-1,3.2l-0.8-2.2h0l-1.3-3.7C203.9,240.8,204.9,241.8,206.3,242.5z M207,255.8 c-0.3,0.1-0.6,0.2-0.7,0.2c0,0,0,0-0.1,0l-1.3-3.7l0.3-0.1l0.5-0.2L207,255.8z M206.3,248.5c0.2-0.5,0.3-1.1,0.5-1.6 c0.4,0.2,0.8,0.4,1.1,0.5c0,1.4-0.2,3.1-0.4,4.7L206.3,248.5z M212.3,257.5c-0.2-0.4-0.5-0.8-0.7-1.2c-0.5-0.6-1-1.2-1.9-1.2 c-0.1,0-0.3,0-0.4,0.1c0,0-0.1,0-0.3,0.1c0.2-1.6,0.7-5.1,0.8-7.7h0.1c0.1,0,0.1,0,0.2,0h0.1c0.1,0,0.3,0,0.4,0 C211,251.2,211.7,254.7,212.3,257.5z M214.5,259.6c-0.7-3.3-1.6-7.7-2.3-12.5c0.2-0.1,0.3-0.2,0.5-0.3c0.7,2.7,1.6,6.1,2.7,9.3 c1.2,4.6,1.4,7.8,1.4,9.4c-0.3-0.1-0.6-0.2-0.9-0.2l0.1,0C215.8,265.3,215.3,263.1,214.5,259.6z M207.8,231.7h4.1 c0,0.5-0.9,1.7-2.1,1.7C208.7,233.4,207.8,232.2,207.8,231.7z M210,238.9c0.1,0,0.1,0,0.2,0c0.2,0,0.4,0,0.6,0h0 c3-0.3,4.3-2.1,4.6-2.9c-0.1,1.1-0.1,2.4-0.3,2.8l0,0l0,0c-0.2,0.6-0.4,0.9-0.9,1.2c-0.5,0.3-1.3,0.7-2.2,1.1l-0.6,0.3l0.2,0.7 c0.2,0.7,0.4,1.8,0.7,2.9c-0.6,0.6-1.5,0.8-2.1,0.8c0,0-0.1,0-0.1,0c-0.8,0-1.6,0.1-2.6-0.7c0.4-1.2,0.6-2.2,0.8-2.9l0.2-0.8 l-0.7-0.3c-2.1-0.8-3.2-2.5-3.5-3.3c0-0.4-0.2-0.9-0.3-1.4c-0.1-0.7,0-1.2,0-1.2S205.5,238.9,210,238.9z M199.4,247.7L199.4,247.7 c1.4,0,2.8-1.1,2.8-2.7l0.8-0.3l2.1,5.8l-0.5,0.2l-0.4,0.1c-0.5-0.7-1.4-1.1-2.1-1.1c-1.3,0-2.7,1-2.7,2.7l-0.9,0.3l-2-5.8l0.9-0.3 C197.9,247.3,198.7,247.7,199.4,247.7z M198.6,244.8c0-0.5,0.5-0.9,1-0.9c0.4,0,0.6,0.1,0.8,0.7c0,0.1,0.1,0.2,0.1,0.3 c0,0.6-0.5,0.9-1,0.9c-0.4,0-0.6-0.1-0.8-0.7v0C198.6,245,198.6,244.9,198.6,244.8z M185.1,268.7L185.1,268.7l0-0.2 c0.1-1,1.5-4.4,3.6-8.3c1.8-3.5,4.1-7.5,6.5-11.3l2,6l4-1.4l-0.2-0.8c0-0.1-0.1-0.2-0.1-0.3c0-0.6,0.5-0.9,1-1 c0.4,0,0.6,0.1,0.9,0.7l0.3,0.9l0,0c-1,2.9-2.7,6.9-3.5,9.2c-0.3-0.1-0.5-0.1-0.8-0.1c-1.6,0-3.1,1-4.4,2.4c0.6-3.8,1.4-7.5,2-9 l-1.6-0.6c-1.1,2.9-2.8,12-2.8,16.9c0,1.1,0.1,1.9,0.3,2.6c0.5,1.3,1.5,2.5,3.1,2.5h0c1.3,0,2.8-0.7,4.6-2.1c-1.1,2-2.9,3.5-5.4,4.4 c-0.3,0.1-0.6,0.1-0.9,0.1c-1.7,0-4-1.3-5.8-3.1c-1.8-1.9-3.1-4.3-3.1-6.2C185,269.5,185,269.1,185.1,268.7z M188.6,239.5V257 c-0.5,0.9-0.9,1.7-1.3,2.5c-0.4,0.7-0.8,1.5-1.1,2.1v-21.4c0,0,0.1,0,0.1,0C187.1,240.2,187.9,240,188.6,239.5z M186.1,231.7v-26.1 c0.7-1.5,1.5-2.9,2.4-4.2v31c-0.7-0.4-1.5-0.7-2.3-0.7C186.2,231.7,186.2,231.7,186.1,231.7z M186.3,232.6c1.9,0,3.4,1.5,3.4,3.4 c0,1.9-1.5,3.4-3.4,3.4c-1.9,0-3.4-1.5-3.4-3.4C182.9,234.1,184.4,232.6,186.3,232.6z M209.1,281.5c-0.3-0.2-0.5-0.3-0.8-0.5 c-0.8-0.5-1.6-1.1-2.5-1.6l1.8,0c0,0,0.1,0,0.1,0C208.1,280.3,208.6,281,209.1,281.5z M209,278l-0.5-0.1c-2.2-0.3-4-2-4-4.3 c0-0.2,0-0.4,0-0.7c0.3-2.2,2.1-4,4.7-4c0.3,0,0.6,0,1,0.1l0.5,0.1l0.3-0.5c1-1.4,2.1-1.8,3.3-1.8c0.9,0,1.9,0.3,2.8,0.7 c1.8,0.9,2.1,2.8,2.1,3.4c-0.2,0.2-0.5,0.3-0.6,0.4c0,0,0-0.1,0-0.1c0-0.9-0.4-2.1-1.5-2.9c-0.7-0.6-1.5-0.8-2.3-0.8 c-1.6,0-3.2,1-3.8,2.5c-0.6-0.3-1.2-0.5-1.8-0.5c-1.8,0-3.6,1.3-3.9,3.3c0,0.2,0,0.4,0,0.6c0,1.1,0.4,2.1,1.1,2.7 c0.7,0.6,1.6,1,2.6,1c0.3,0,0.5,0,0.8-0.1c0.1,2.1,1.8,3.8,4,3.9c0.5,0,1-0.1,1.5-0.3c0.2-0.1,0.3-0.2,0.4-0.2 c0.2,0.2,0.5,0.4,0.7,0.6c-0.3,0.2-0.8,0.4-1.5,0.5c-0.4,0.1-0.9,0.1-1.2,0.1c-2,0-3.4-1-4.3-3.3L209,278z M224.2,276.4l-6.1,3.7 l0,0c-0.2-0.1-0.3-0.2-0.5-0.3l6.3-4l-0.9-1.5l-6.5,4.2c-0.1-0.3-0.2-0.6-0.2-0.9l6.4-3.9l-0.9-1.5l-4.8,2.9c0.4-0.7,1-1.3,1.5-1.6 c0.5-0.3,0.5-0.3,5.5-3.4c0.1,0,0.1,0,0.2,0c0.7,0.2,1.9,0.6,2.9,1.2c1.2,1.1,1.7,2.5,1.7,3.8c0,0.4-0.1,0.8-0.2,1.1 c-0.9,0.5-2.9,1.8-3.9,2.4c-0.7,0.3-1.4,0.7-1.9,1c-0.5,0.2-1,0.4-1.5,0.5l3.9-2.3L224.2,276.4z M233.1,240.2V259 c-0.7-1.3-1.4-2.7-2.2-4.1v-15.2C231.5,240,232.3,240.2,233.1,240.2L233.1,240.2z M233.1,232.6c1.9,0,3.4,1.5,3.4,3.4 c0,1.9-1.5,3.4-3.4,3.4c-1.9,0-3.4-1.5-3.4-3.4C229.7,234.1,231.3,232.6,233.1,232.6z M234,161c-1.7,0-3.2,0.9-4.1,2.2 c-1-1.3-2.5-2.2-4.3-2.2c-1.3,0-2.6,0.5-3.6,1.3l8.1-12.3l7.2,11v1.2C236.5,161.5,235.3,161,234,161z M230.9,176.7v-10.5h0 c0,0,0,0,0,0v-0.3c0-1.7,1.4-3.1,3.2-3.1c1.8,0,3.3,1.4,3.3,3.1h0v20.7L230.9,176.7z M230.9,185.9v-6.1l6.5,9.9v6.1L230.9,185.9z M233.1,205.1v26.7h0c-0.8,0-1.6,0.2-2.2,0.6v-31.1C231.7,202.4,232.4,203.7,233.1,205.1z M237.4,223.9v11.9c-0.1-1.6-1.1-3-2.5-3.6 v-22.9C236.4,213.5,237.3,218.4,237.4,223.9z M230.9,198.3v-9.2l6.5,9.9v12.1C235.9,206.2,233.7,201.8,230.9,198.3z M237.4,279.8v21 c-0.6-3-1.1-6.1-1.5-8.3c-0.3-1.9-1-5-1.9-7.9c-0.5-1.4-1-2.8-1.7-3.9c-0.2-0.3-0.4-0.7-0.7-1H237.4z M233.3,275.8 c1.7-1.5,3.4-3.7,3.4-6.8c0-0.5,0-1-0.1-1.6l0,0l0,0c-0.3-1.3-0.9-2.9-1.7-4.7v-22.8c1.4-0.6,2.4-2,2.5-3.6v39.6H233.3z M224.4,240.2v4.3c-0.9-1.2-1.7-2.5-2.6-3.7v-1.3c0.7,0.4,1.5,0.7,2.3,0.7C224.2,240.2,224.3,240.2,224.4,240.2z M229.1,237.5v1.5 v12.9c-1-1.6-2-3.2-3-4.8h0v-7.3c1.3-0.7,2.2-2.1,2.2-3.7c0-1.6-0.9-3-2.2-3.8v-3.1c1.4-1.9,2.4-4,3-6.3v10.1v1.6 c-0.2,0.5-0.3,1-0.3,1.5C228.9,236.5,229,237,229.1,237.5z M226.3,193.7l2.9-4.5v7.1C228.2,195.4,227.3,194.5,226.3,193.7z M229.1,198.9v14.8c-0.6-2.3-1.6-4.5-3-6.4v-11.4C227.2,196.8,228.2,197.8,229.1,198.9z M223.8,231.7c0.2-0.2,0.4-0.4,0.6-0.5v0.5 c-0.1,0-0.2,0-0.3,0C224,231.7,223.9,231.7,223.8,231.7z M224.1,232.6c1.9,0,3.4,1.5,3.4,3.4c0,1.9-1.5,3.4-3.4,3.4 c-1.9,0-3.4-1.5-3.4-3.4C220.7,234.1,222.2,232.6,224.1,232.6z M219.1,240.2c-0.4,0.4-1.2,1.1-2,1.8c-1.1,1-2.4,2.1-2.4,3.8 c0,0.2,0,0.3,0.1,0.5c0.1,0.6,0.6,1.7,1.3,3.4c1,2.5,2.6,6,4.1,8.9c0.7,1.5,1.5,2.8,2.1,3.9c0.7,1.1,1.1,1.8,1.8,2.3 c0.6,0.6,1.3,1,2.1,1.2c2.3,0.7,4.1,1.2,5,3.2l1.6-0.7c-1.3-2.8-3.9-3.4-6.1-4.1c-0.1,0-0.2-0.1-0.2-0.1c0-0.1,0-0.3,0-0.4 c0-1.8,0.5-4.9,0.7-6.2l-1.7-0.3c-0.2,1.2-0.6,3.7-0.7,5.7c-0.3-0.3-0.5-0.7-0.7-1.1c-1-2-1.5-4.9-1.7-7.7c-0.2-2.8-0.3-5.5-0.6-7.2 l-1.7,0.3c0.3,1.8,0.3,5.2,0.7,8.6c-0.4-0.8-0.8-1.7-1.2-2.5c-0.8-1.8-1.5-3.5-2.1-4.8c-0.5-1.3-0.9-2.4-0.9-2.5c0-0.1,0-0.1,0-0.2 c0-0.7,0.7-1.6,1.8-2.5c0.7-0.6,1.4-1.1,2-1.7c6.7,9.1,13.3,20.5,14.6,26c0.1,0.4,0.1,0.9,0.1,1.3c0,2.6-1.5,4.4-3.1,5.7 c-0.5,0.4-1,0.8-1.5,1c0-0.2,0-0.4,0-0.7c0-1.1-0.2-2.6-1.1-3.8c-0.4-0.5-0.9-0.9-1.4-1.3c-1-0.8-2.3-1.4-4-1.6c0,0,0,0,0,0 l-0.4-0.1l0,0l-0.1,0l-0.2,0.1c0,0,0,0-0.1,0c-0.1,0-0.5-0.1-0.9-0.6c-1.7-1.8-3.8-7.2-5.4-12.6c-1.5-5-2.8-10-3.5-12.8 c0.6-0.3,1.2-0.6,1.8-0.9c0.7-0.5,1.4-1.2,1.7-2.2c0.1-0.5,0.2-1.1,0.3-1.6C217.8,238.4,218.5,239.3,219.1,240.2z M220,237.2v1.3 c-0.7-0.9-1.4-1.8-2.1-2.6c0.7-0.4,1.4-0.8,2.1-1.2c-0.1,0.4-0.2,0.8-0.2,1.2C219.9,236.4,219.9,236.8,220,237.2z M217.6,226.6 c-0.8-0.1-0.9-0.1-0.9-0.1s-0.2,0.7-0.7,1.5c-0.4,0.7-0.4,0.4-1.2,1.6c0,0-1.4-1.1-2.6-1.4c0-0.8,0-1.5,0-1.5h-0.7l0,1.6h-0.4V228 h-0.6c0,0,0,0.3,0,0.6c0,0.7-1.1,0.7-1.1,0c0-0.4,0-0.7,0-0.7h-0.6v0.4h-0.5v-1.6h-0.8v1.5c0,0-1.6,0.5-2.3,1.2 c-0.4-0.3-2.2-0.9-2.4-2.9c-0.6,0-0.5,0-0.5,0s-0.9-2.3-1.4-5.1c0.5-0.5,2-1.8,1.9-2.5c0.5,0.4,0.9,0.6,1.6,0.6c0.7,0,1.7-0.5,2-1.1 c0.5,0.3,2.4,1,3.5-0.6c0.4,0.4,0.9,1.1,1.6,1.1c0.8,0,1.8-0.4,1.8-0.4s0.6,1.1,2,1.1c1.4,0,1.6-0.6,1.6-0.6s1.8,1.8,2.4,2.5 C219.2,222.1,218.2,225.3,217.6,226.6z M199,234.3c0.3,0.2,0.8,0.6,1.3,0.9l-1,0.3C199.3,235.1,199.2,234.7,199,234.3z M199.5,237.4 v-0.1l0.9-0.3l2.1,6l-0.8,0.3c-0.5-0.8-1.3-1.2-2.1-1.1c-1.3,0-2.7,1-2.8,2.7c0,0,0,0,0,0l-0.9,0.3l-2.1-6.1l0.9-0.3 c0.5,0.8,1.4,1.2,2.2,1.1c0.6,0,1.2-0.2,1.7-0.7C199.2,238.9,199.5,238.2,199.5,237.4z M194.9,231.7v-0.9c0.3,0.3,0.6,0.6,0.9,0.9 c-0.2,0-0.5-0.1-0.7-0.1C195,231.7,195,231.7,194.9,231.7z M195.1,232.6c1.8,0,3.3,1.4,3.4,3.2l-1,0.3l0.2,0.8 c0.1,0.2,0.1,0.3,0.1,0.5c0,0.5-0.3,0.7-0.8,0.8c-0.4,0-0.7-0.2-0.9-0.7l-0.1-0.3v-0.4h1.4v-1.7h-1.4v-1.4h-1.8v1.4h-1.4v1.7h1.4 v0.3l-1.9,0.6c-0.4-0.5-0.6-1.2-0.6-1.8C191.7,234.1,193.2,232.6,195.1,232.6z M178.1,216l-4.3-6.5v-34.2h0c0-1.1,0.9-2,2.1-2 c0.6,0,1.1,0.2,1.6,0.6c0.4,0.4,0.6,0.9,0.6,1.4V216z M173.8,275.8v-38.5c0-0.5,0.2-1,0.6-1.4c0.4-0.4,1-0.6,1.6-0.6 c1.1,0,2,0.9,2.1,1.9v38.6H173.8z M178.1,279.8v31.1c-1.3,2-2.8,4-4.3,5.7v-36.9H178.1z M173.5,330.2h-1.6v-3 c0.1,0.3,0.2,0.5,0.2,0.8C172.5,328.9,173,329.7,173.5,330.2z M172.9,320.1c3.6-3.3,7.1-8.6,9.4-12.8c3.4-6.2,5.5-14.5,6.6-17.8 c1.3-4.1,2.7-5.7,4.2-7c-0.9,1.7-1.4,3.5-1.8,4.8c-0.9,3.2-1.6,6.5-2.4,9.7c-1.4,5.9-6.8,22.3-9.6,28.7c-0.6,0.7-0.8,1.6-1.3,2.2 c-0.5,0.7-0.9,1.3-1.9,1.5c-0.1,0-0.3,0.1-0.4,0.1c-0.6,0-1.3-0.5-1.9-2.1C173.2,325.8,172.9,323.3,172.9,320.1z M197.3,330.2h-3.4 c0.4-0.3,0.9-0.6,1.3-1c0.9-0.8,1.8-1.4,2.6-2c-0.3,0.9-0.5,1.9-0.5,2.8C197.3,330.1,197.3,330.2,197.3,330.2z M204.1,330.8l1.4-4.3 l0.4,0.2c0,0.4,0,1-0.1,1.6c0,1.1-0.2,2.3-0.2,2.6c0,0.1-0.3,0.4-0.6,0.7c-0.4,0.3-0.8,0.5-1.1,0.7c0,0-0.4,0.2-0.9,0.3 c-0.5,0.1-1,0.2-1.4,0.2c-0.1,0-0.2,0-0.3,0c-0.5,0-1.3-0.6-1.9-1.4c-0.2-0.2-0.3-0.7-0.3-1.3c0-1.3,0.6-3,1.4-4 c0.1-0.1,0.2-0.2,0.2-0.3c0.4-0.1,0.7-0.2,1-0.3l0.1,0c0.2,0,0.4,0,0.6,0c0.3,0,0.6,0,0.9,0.1l0.5,0.2l-1.5,4.5L204.1,330.8z M210.6,330.2h-3.2c0.1-0.6,0.1-1.2,0.1-1.9c0-0.1,0-0.2,0-0.3c0.1,0.1,0.2,0.1,0.3,0.2C208.7,329.2,209.7,329.9,210.6,330.2z M216.5,330.2h-1.9c0.5-0.2,1-0.5,1.5-0.8C216.1,329.7,216.3,329.9,216.5,330.2z M223.4,327.7c1.4,2,1.7,3.3,1.7,4 c0,0.4-0.1,0.6-0.2,0.7c0,0.1-0.1,0.1-0.1,0.1c-0.3,0.2-1.1,0.5-2,0.5c-0.7,0-1.6-0.2-2.5-0.9c-1-0.7-1.8-1.8-2.4-2.7 c-0.3-0.4-0.4-0.8-0.6-1.1c1.2-0.8,2.4-1.3,3.8-1.3c0,0,0.1,0,0.1,0l1.2,3.4l1.7-0.6L223.4,327.7z M227.9,330.2h-1.3 c-0.1-0.4-0.3-0.9-0.6-1.5C226.7,329.2,227.3,329.7,227.9,330.2z M242,330.2h-6.2c0.7-0.7,1.4-1.5,2.1-2.3c0.8-1.1,1.6-2.1,2.2-3 c0.1,0.8,0.2,1.7,0.4,2.6c0.2,0.9,0.6,1.7,1.2,2.4C241.8,330,241.9,330.1,242,330.2z M243.9,318.2c1.3,1.2,2.6,2.2,3.3,2.9 c-0.3,2-0.5,4.2-1,5.8c-0.2,0.9-0.5,1.6-0.9,2c-0.3,0.4-0.6,0.6-1.1,0.6c-0.5,0-0.8-0.2-1.2-0.6c-1.1-1.1-1.3-4.5-1.2-6.2V321l0,0 l0-0.1c-1.3-0.6-3-1-4.8-2.8c-1.7-1.8-3.5-4.9-4.4-10.9c-0.3-2.1-0.7-6.7-1.2-11.4c-0.5-4.7-1.2-9.3-2.3-11.8l-1.6,0.7 c0.9,2,1.6,6.7,2.1,11.3c0.5,4.6,0.9,9.2,1.2,11.4c0.9,6.3,2.8,9.8,4.9,11.9c1.6,1.6,3.2,2.3,4.4,2.8c-0.5,0.4-0.9,1-1.4,1.7 c-1,1.3-2.1,3-3.4,4.4c-1.3,1.4-2.6,2.3-3.7,2.3c-0.6,0-1.2-0.2-1.9-0.9c-2.8-2.9-5.7-4.3-8.6-4.3c-2.1,0-4,0.8-5.7,2.3 c-0.9,0.8-1.9,1.3-2.9,1.3c-1,0-2.2-0.4-3.6-1.8c-0.5-0.5-1.6-1.5-1.4-1.3c0.2,0.2-1.2-1.2-2.4-1.6c-1-0.4-2-0.5-2.5-0.5 c-0.7,0-1.7,0.1-3.2,0.6c-1.6,0.6-3.3,1.7-5.4,3.6c-1.6,1.3-2.9,1.8-4.1,1.8c-1.8,0-3.3-1.1-4.2-2.3c-0.9-1.1-1.5-1.9-2.2-2.3 c-0.6-0.4-1.3-0.5-2-0.6c3-7.4,7.6-21.6,9-27.2c0.8-3.2,1.5-6.4,2.4-9.6c0.7-2.4,1.8-5.8,4.4-7.6c1.2-0.4,2.4-0.7,3.4-0.7 c0.6,0,1.2,0.1,1.7,0.3c1.4,0.5,3.1,1.7,4.9,2.8c1.8,1.1,3.7,2.2,5.8,2.2c3.9,0,7.9-2.3,9.1-2.8c0.4-0.2,0.8-0.4,1.2-0.7 c0.5-0.2,1-0.5,1.5-0.7c0.1,0,0.2-0.1,0.4-0.2c0.8-0.3,1.6-0.6,2.4-0.6c0.5,0,0.9,0.1,1.4,0.3c0.4,0.1,1,0.7,1.5,1.6 c1.7,2.8,2.9,8.4,3.4,11.1c0.7,3.8,1.6,9.8,2.9,14.6c0.4,1.3,1,2.9,1.7,4.2c0.3,0.7,0.7,1.2,1,1.7c0.1,0.1,0.1,0.2,0.2,0.2 C240.9,315.2,242.4,316.8,243.9,318.2z M245.6,279.8v37.6c-0.2-0.2-0.4-0.3-0.6-0.5c-1.5-1.3-2.9-2.9-3.6-4.2l-0.1,0l0-0.1 c0,0-0.1-0.1-0.1-0.1v-32.6H245.6z M243.4,235.3c0.6,0,1.2,0.2,1.6,0.6c0.4,0.4,0.7,0.9,0.7,1.4v38.5h-4.3v-39 C241.6,235.9,242.3,235.3,243.4,235.3z M247.4,275.8v-38.5c0,0,0,0,0,0c0-0.5,0.2-1,0.6-1.4c0.4-0.4,1-0.6,1.6-0.6c1.1,0,2,0.9,2,2 h0v38.5H247.4z M247.5,328.2v2h-1.2c0.1-0.1,0.2-0.2,0.3-0.4C247,329.4,247.3,328.8,247.5,328.2z M247.4,318.9v-39.1h4.3v27.5 l-4.1,7.3v4.4C247.5,319,247.4,318.9,247.4,318.9z M246.5,211.4l5.1,7.8v14.9c-0.6-0.4-1.3-0.6-2-0.6c-1.2,0-2.3,0.6-3.1,1.4 c-0.8-0.9-1.9-1.4-3.1-1.4c-0.7,0-1.4,0.2-2,0.5v-14.9L246.5,211.4z M241.4,175.3c0-1,1-2,2.1-2c1.1,0,2.1,0.9,2.1,2v34.2l-4.3,6.5 L241.4,175.3L241.4,175.3z M251.6,175.1V216l-4.3-6.5v-34.2c0,0,0,0,0,0c0-1,1-2,2.2-2C250.6,173.3,251.5,174.1,251.6,175.1z M246.6,160.1l5,7.6v4.4c-0.6-0.4-1.3-0.6-2.1-0.6c-1.2,0-2.3,0.5-3,1.4c-0.7-0.9-1.8-1.4-3-1.4c-0.8,0-1.5,0.2-2.2,0.6v-4.1 L246.6,160.1z M247.5,151.4v-1.6h-1.8v1.6h-1.6v1.8h1.6v5.1l-4.4,6.7v-33.8l10.3,15.5v17.9l-4.1-6.3v-5.1h1.6v-1.8H247.5z M209.8,200.6c5,0,9.6,2,12.9,5.3c3.3,3.2,5.3,7.7,5.3,12.4c0,6.9-4.2,12.6-10.6,16c0-0.4,0.1-0.7,0.1-1.1c0.2-2.4,2.6-6.4,2.6-6.4 s1.6,0.2,2.3-1c0.7-1.2,0.1-2.3,0.1-2.3s1.7-0.5,1.9-2.1c0.3-2.1-1.7-2.6-1.7-2.6s1-1,0.4-2.5c-0.7-1.8-2.7-1.5-2.7-1.5 s0.3-1.1-1.1-1.9c-1.4-0.8-2.1-0.3-2.1-0.3s-0.3-0.8-1.1-1.1c-0.8-0.3-1.6-0.1-1.6-0.1s-0.4-0.5-1.2-0.6c-0.8-0.2-1.5,0.2-1.5,0.2 s-0.9-0.8-1.8-0.8c-0.9,0-1.8,0.8-1.8,0.8s-0.3-0.4-1.3-0.4c-1,0-1.5,0.8-1.5,0.8s-0.7-0.4-1.6-0.1c-0.9,0.4-1.2,1.3-1.2,1.3 s-0.7-0.6-2.1,0.3c-1.2,0.7-1.1,1.9-1.1,1.9s-1.3-0.3-2.4,0.9c-1.1,1.3,0,2.9,0,2.9s-1.8,0.4-1.7,2.4c0.2,2,1.9,2.4,1.9,2.4 s-0.3,1.3,0.3,2.3c0.4,0.8,1.6,1,2.4,1c0.2,0.7,1.3,5.3,1.6,7.2c0,0,0,0,0,0c-1.1-0.7-2-1.3-2-1.4c-5.2-3.6-7.9-8.8-7.9-14.2 c0-4.7,2-9.2,5.3-12.4C200.2,202.6,204.8,200.6,209.8,200.6z M203,190.5v9.5c-1.2,0.4-2.4,1-3.5,1.7v-9.9 C200.6,191.3,201.8,190.9,203,190.5z M219.3,138.8v8.4c-0.6-0.4-1.3-0.6-2-0.6c-1.1,0-2.1,0.5-2.8,1.3c-0.3-0.3-0.6-0.6-1-0.9 c-0.8-0.6-1.8-0.9-2.9-1v-1h1.6v-1.8h-1.6v-1.5h-1.8v1.5h-1.6v1.8h1.6v1c-1.1,0.1-2.2,0.5-3,1c-0.4,0.2-0.7,0.5-0.9,0.9 c-0.7-0.8-1.7-1.3-2.8-1.3c-0.7,0-1.4,0.2-2,0.6l0-8.4H219.3z M219.3,127.6H216V115h0c0-0.6,0.2-1.1,0.5-1.5c0.3-0.4,0.7-0.5,1-0.5 c0.4,0,0.8,0.2,1.2,0.6c0.3,0.4,0.6,0.9,0.6,1.4V127.6z M216,190.4c1.2,0.3,2.4,0.8,3.6,1.3v9.8c-1.1-0.6-2.3-1.2-3.6-1.6V190.4z M215.4,168.8v-18.4c0-1.1,0.9-2,2-2c1,0,1.9,0.9,2,1.9v24.5L215.4,168.8z M213.6,160.6v5.5l-2.6-4 C212,161.8,212.9,161.2,213.6,160.6z M210.7,149.7v-1.9c0.8,0.1,1.4,0.4,1.9,0.7c0.7,0.5,1,1.1,1,1.9h0v9.1h-2.9v-6.9 c0.5-0.3,0.8-0.8,0.8-1.4C211.5,150.5,211.1,150,210.7,149.7z M208.5,162.1l-2.7,4.1v-5.7C206.5,161.2,207.5,161.8,208.5,162.1z M208.9,152.5v6.9h-3.1v-9.1c0-0.8,0.4-1.4,1-1.9c0.5-0.4,1.2-0.6,2-0.7v1.9c-0.5,0.3-0.8,0.8-0.8,1.4 C208.1,151.7,208.4,152.3,208.9,152.5z M200.2,150.2c0.1-1,1-1.8,2-1.8c1,0,1.9,0.9,1.9,2v18.6l-3.9,6V150.2z M209.8,163.5l9.5,14.5 v5.1l-9.5-14.6l-9.6,14.7l0-5L209.8,163.5z M209.8,176.8l-8,12.3c-0.5,0.2-1.1,0.4-1.6,0.6v-3.3l9.6-14.7l9.5,14.6v3.4 c-0.5-0.2-1-0.4-1.5-0.5L209.8,176.8z M208.9,189.6v9.3c-1.4,0.1-2.8,0.3-4.1,0.6v-9.4C206.1,189.8,207.5,189.6,208.9,189.6z M214.3,190v9.4c-1.2-0.3-2.4-0.4-3.6-0.5v-9.3C211.9,189.6,213.1,189.7,214.3,190z M209.8,187.8L209.8,187.8l-0.1,0v0 c-1.8,0-3.6,0.2-5.4,0.6l5.5-8.4l5.5,8.4C213.5,188,211.6,187.8,209.8,187.8z M210.7,127.6V115h0c0-1.1,0.8-2,1.8-2 c1,0,1.8,0.8,1.8,2v12.5H210.7z M205.2,127.6V115c0-1.1,0.9-2,1.9-2c1,0,1.9,0.9,1.9,2h0v12.5H205.2z M200.2,127.6V115h0 c0-1.2,0.9-2,1.6-2c0.4,0,0.8,0.2,1.1,0.5c0.3,0.4,0.5,0.9,0.5,1.4v12.5H200.2z M209.7,129.3L209.7,129.3l9.6,0v7.7h-19.1v-7.7 H209.7z M194.2,115c0-0.6,0.2-1.1,0.5-1.5c0.3-0.4,0.7-0.5,1-0.5c0.4,0,0.8,0.2,1.2,0.6c0.3,0.4,0.6,0.9,0.6,1.4h0v12.5h-3.3 L194.2,115L194.2,115z M188.4,127.6V115c0-0.5,0.2-1,0.6-1.4c0.4-0.4,1-0.6,1.5-0.6c1.1,0,2,0.9,2,2v12.5H188.4z M197.5,129.3l0,7.7 h-15.4v-7.7H197.5z M234.5,343.7c-8,1.6-16.2,2.4-24.7,2.4c-8.5,0-16.7-0.8-24.7-2.4H234.5z M232.5,335.6L231,337v1.8h1.7v1.8H231 v1.8h-1.8v-1.8h-1.7v-1.8h1.7V337h0l-1.5-1.4h-5.3l-1.5,1.4h0v1.8h1.8v1.8h-1.8v1.8H219v-1.8h-1.7v-1.8h1.7V337l-1.5-1.4h-5.2 l-1.5,1.4v1.8h1.7v1.8h-1.7v1.8H209v-1.8h-1.7v-1.8h1.7V337h0l-1.5-1.4h-5.3l-1.5,1.4v1.8h1.7v1.8h-1.7v1.8h-1.8v-1.8h-1.7v-1.8h1.7 V337l-1.5-1.4H192l-1.5,1.4v1.8h1.8v1.8h-1.8v1.8h-1.8v-1.8h-1.7v-1.8h1.7V337l-1.6-1.4h-15.3c0.6,0.6,5.3,4.8,7.7,6.9 c-4.2-1-8.4-2.3-12.4-3.8c0,0,0,0,0,0l0-2.3l1-0.9l3.1-2.7h27.3c0.7,0.8,1.6,1.4,2.6,1.5c0.2,0,0.3,0,0.5,0c0.6,0,1.2-0.1,1.7-0.2 c0.6-0.1,1.1-0.2,1.5-0.5c0.2-0.1,0.7-0.4,1.2-0.8l0.1-0.1h12.6c0.2,0.2,0.5,0.4,0.7,0.6c1.2,0.9,2.5,1.2,3.5,1.2h0 c1.4,0,2.4-0.5,3-0.8c0.2-0.1,0.6-0.4,0.8-1h21.7l3.9,3.4v2.4c-0.2,0.1-0.5,0.2-0.9,0.3c-3.8,1.3-7.6,2.5-11.6,3.4 c1.9-2,5.7-5.9,6.8-6.9H232.5z M227,95.7c1.4,0.2,2.8,0.4,4.1,0.6v9.1l-4.1-6.3V95.7z M209.8,60.3c-88.3,0-159.9,71.6-159.9,159.9 c0,88.3,71.6,159.9,159.9,159.9c88.3,0,159.9-71.6,159.9-159.9C369.7,131.9,298.1,60.3,209.8,60.3z M360.3,209.8 c0,0-0.9,0.2-1.1,0.2c0.6,1,2.4,3,2.4,3c0.5-0.1,1.7-0.9,1.7-0.9L360.3,209.8z M319.9,244.3h-1.8v1.4h-1.4v1.7h1.4v1.4h1.8v-1.4h1.4 v-1.7h-1.4V244.3z M333.9,168.5l-0.4-0.2c0.3-1,0.4-3.4,0.4-4l4.7,0.8l-0.1,1.4L333.9,168.5z M340.1,163.1l4.3-1.9l0.2,0.1 c0,0-0.9,2.8-1,4l-3.8-0.7L340.1,163.1z M340,168.7c0.5-0.2,0.9,0.1,0.9,0.1l0.1-0.1l0.1-3.2l4.8,0.9c0-0.8,0.5-3.2,0.9-4.1 c-1.5-0.9-3.8-3.5-3.8-3.5s-3.4,1.5-4,1.7c-0.6,0.3-1-0.1-1-0.1l-0.1,0.1l-0.3,3.7l-6-1c0.2,0.5,0,3.6-0.2,4.2 c0.5,0.2,3.6,2.6,4.2,3.3C335.6,170.7,339.5,169,340,168.7z M334.1,142.2l-2,4.1c0,0-1.8-0.5-3.1-0.8L334.1,142.2z M325.2,147.9 l3-1.9c2.2,0.4,3.7,0.9,5.9,1.7l0.1-0.1l2.4-4.7c-1.3-0.7-3-1.6-4.5-2.8c0,0-8.1,5.2-8.6,5.5c-0.5,0.3-1,0.1-1,0.1l-0.1,0.1 c0.3,1.4,0.4,3.6,0.3,5.4l3.7,0.7l0.1-0.6C325.3,151.2,325.4,150.1,325.2,147.9z M356.4,237c0.6-1,0.5-1.7,0.5-3 c-0.8,0.3-3.3,0.3-3.9,0c0,0.9,0,0.8,0,3.8c0,2.1-0.4,3-0.5,3.2c-0.8,0.5-2.2,1.2-4.2,1.2c0,0.3,0,0.5,0,0.7c0.9,0,1.3,1.4,1.3,2.3 c0,0.4,0.1,0.8,0.1,1.3c0,2,0,5.9-0.8,7.2c-0.4,0.6-1.1,1.8-1.1,1.8l-5.5,8.3c0,0,0,0-0.1,0.1l-3,4.6h0l-0.1,0.1c0-2.5,0-8.3,0-10.6 l1.4-2.2c0.3-0.3,1.7-1.5,3.3-1.5h2.5c-0.2-1-0.2-2.5,0-3.5c-0.8,0-1.4,0-1.8,0.1c0.6-1.1,0.5-1.8,0.5-3.3c-0.9,0.4-3.6,0.3-4.3,0 c0,1,0,0.9,0,4.1c0,2.2-0.4,3.2-0.5,3.5l-1.4,2c-0.4,0.5-1.6,1.4-4.8,1.4c0,0.3,0,0.5,0,0.7c0.9,0,1.3,1.4,1.3,2.3 c0,0.4,0.1,9.7,0,10.2c0,2,0,5.9-0.9,7.2c-0.4,0.6-1.2,1.8-1.2,1.8l0.5,0.3c0,0,1-1.4,2.3-3.2c0.1-0.2,0.2-0.4,0.4-0.5l0,0 c0,0,2.5-3.8,6.8-3.8c0,0,3.6,0,3.7,0c-0.3-1.1,0.6-2.5,1.3-3.2c-4.3,0-7-0.5-9.6,2.7l-0.3,0.4c0.4-1.1,0.6-2.4,0.6-3.7l0,0l0.7-1.1 c0.6-0.8,3.3-4.1,7.6-4.1h4.1c-0.3-1.3,0.6-2.8,1.4-3.6c0.6-0.5,1.6-1.1,2.7-1.1c0,0,3.2,0,3.2,0c-0.2-1-0.2-2.4,0-3.4 c-1.2,0-2,0-2.7,0.3c0.5-1,0.5-1.6,0.5-2.9c-0.8,0.3-3.2,0.3-3.8,0c0,0.9,0,0.8,0,3.7c0,2.5-0.6,3.2-0.6,3.2v0l-0.1,0.1 c-3.4,0-5.9-0.2-8.1,1.2l4.1-6.2c0,0,0.1-0.1,0.2-0.4l1.7-2.6c0.1-0.1,0.2-0.2,0.2-0.4c0,0,0-0.1,0.1-0.1l0.3-0.4 c0.1-0.1,1.7-1.7,3.6-1.7h4c-0.2-1.1-0.2-2.7,0-3.8c-2.9,0-4.2,0.3-6,2.5c0.5-1.4,0.9-2.9,0.9-4.5c0-0.8,0-2.1,0-3 c0.7-0.5,2.1-1.1,3.6-1.1h2.4c-0.2-1-0.2-2.5,0-3.5C358,236.7,357.1,236.8,356.4,237z M330.1,156.9l8.8-4.8l0.6,0.2 c-0.1,0.7-1.7,3.2-1.7,3.2l0.1,0.1c1.7,0.1,2.9,0.5,2.9,0.5l0.1-0.1l1.5-3.4l-2.7-0.9l0.6-2.9c0,0-1.1-0.2-2.8-0.9l-0.1,0.1 c0.3,0.5,0.4,1.4,0.2,1.5c0,0-8.4,4.6-9,4.9c-0.6,0.3-1,0-1,0l-0.1,0.1c0.1,1.4,0.1,3-0.1,4.4l3.6,1l0.2-0.5 C329.9,159.2,330,158.6,330.1,156.9z M340,287c0.6-1.1,0.5-1.8,0.5-3.3c-0.9,0.4-3.6,0.3-4.3,0c0,1,0,0.9,0,4.2 c0,2.3-0.4,3.3-0.6,3.6c-1.2,0.1-3.3-0.1-3.8-0.1l0.2,7.8c0,3-0.9,4.5-1.2,4.9c-1.9,0-4.1,0-4.9,0c-2,0.1-3.6,0.4-5.2,1.5 c1-1.8,1.7-4,1.7-6.3c0-0.9,0-3.2,0-4.8c0.7-0.5,1.8-1.2,3.1-1.2h3.6c-0.3-1.1-0.2-2.8,0-3.9c-1.4,0-2.3,0.1-3.1,0.3 c0.6-1.1,0.5-1.8,0.5-3.3c-0.9,0.4-3.6,0.3-4.3,0c0,1,0,0.9,0,4.2c0,2.8-0.6,3.7-0.6,3.7v0l-0.1,0.1c-0.8,0.9-1.8,1-2.9,1v6.6 c0,1.3,0.3,4.8-0.6,6.7l-2.2,3.4l0.5,0.3c0,0,2.2-4.5,6.8-4.5l10.2,0c-0.3-1.4-0.2-2.7,0.4-3.8c-0.5,0-1.2,0-2,0 c0.5-0.5,1.3-1.3,2.1-2.3h0c0,0,1.7-1.7,3.7-1.7h3.6c-0.3-1.1-0.2-2.7,0-3.9c-2.7,0-3.7,0.2-5.2,2c0.2-0.7,0.4-1.3,0.4-2 c0,0,0-2.7,0-4.3c0.7-0.5,1.8-1.2,3.1-1.2h3.6c-0.2-1.1-0.2-2.8,0-3.9C341.7,286.7,340.8,286.7,340,287z M338.1,178.7 c-0.2-0.7,0.1-1.5,0.1-1.5s9.2-3.5,9.7-3.7c0.5-0.2,0.9,0.1,0.9,0.1l0.1-0.1l1-3.1c0,0-0.9-0.2-2.7-1.3l-0.1,0c0,0,0.6,1.4-0.2,1.7 c-0.5,0.2-8.7,3.3-9.5,3.6c-0.8,0.3-1-0.1-1-0.1l-0.1,0l-0.9,3.1l2.6,1.2L338.1,178.7z M289.7,97.5l1-1.5l-1.5-1l-1,1.4l-1.4-1 l-1,1.5l1.5,1l-1,1.5l1.5,1l1-1.4l1.5,1l1-1.5L289.7,97.5z M224.7,364.3c0,0-0.5-9.3-0.6-10c0-0.6,0.4-0.9,0.4-0.9v-0.1 c-1.3-0.5-2.8-1.2-3.9-2l-2.4,2.8l0.4,0.4c0.8-1,1.3-0.7,2.8,0.1l0.6,9.8l-2.2,0.1l-0.5,1.4l2.9-0.2l0.2,4.2l0.3,0 c0.6-2.2,1.8-4,3.3-5.2l0-0.6L224.7,364.3z M234.1,364.5c0,0-2.4-1.6-3.6-2l1.7-3.4l1.4,0.7l0.6,4.6L234.1,364.5z M230.9,357.4 l-0.7-5.1l0.3-0.3c0.9,0.5,3.2,1.3,3.7,1.4l-2,4.4L230.9,357.4z M236.8,358.4l0-0.1l-3.5-1.3l2.6-5.5c-0.6,0.1-3.5-0.9-4-1.3 c-0.4,0.5-3.4,2.8-4.3,3.2c0,0,0.6,4.2,0.7,4.8c0.1,0.6-0.3,0.8-0.3,0.8l0,0.1l3.1,1l-2.1,4.4c0.7,0.2,2.9,1.3,3.7,1.9 c1.3-1.2,4.4-2.7,4.4-2.7s-0.5-3.7-0.6-4.3C236.3,358.7,236.8,358.4,236.8,358.4z M263.6,344.1l-0.5-0.3l-0.7,1.1 c-0.7,1-2.6,3.1-5.4,3.1c0,0-7.7-0.1-7.7-0.1c0.3,1.2,0.3,2.8-0.3,4.1c1.3,0,2.5,0,3.7,0l-0.6,0.9v-0.1c0,0-2.1,3.6-6.5,3.6 c-1.5,0-4.3,0-4.3,0s0.3,0.5,0.3,1.7c0,1.5-0.6,1.9-0.6,1.9s2,0,3.5,0c0.8,0,1.6-0.2,2.3-0.6c-1.1,1.6-2.1,3.5-2.1,5.1 c0,0,0,0.7,0,1.8c1.1-0.6,3.6-0.4,4.4-0.4l0-3.5c0-3.2,0.8-5.2,1.3-6.1l3-4.4c2.1-0.1,4-0.5,5.5-1.5l0,7.5l0,0c0,0-1.4,1.5-3.1,1.5 H252c0.2,1,0.2,2.4,0,3.3c1.7,0,2.9-0.1,4-0.7c-0.3,1.1-0.3,2.2-0.3,3.2c0.7-0.3,2.8-0.3,3.3,0v-4.5c0-1.3,0.2-2,0.3-2.3 c0.9,0,3.4,0,4.2,0c0-0.3,0-0.5,0-0.7c-0.8,0-1.2-0.7-1.3-2.5c-0.1-0.8-0.1-2.9-0.1-3.4c0-2.2-0.1-5.3,1.2-7.2 C263.6,344.2,263.6,344.1,263.6,344.1z M216.3,354.7c0-0.6,0.4-0.8,0.4-0.8v-0.1l-3.5-2c0,0-2.7,2.1-4.8,3.3c0,0,0.1,9.5,0.1,10.1 c0,0.6-0.5,0.9-0.5,0.9v0.1l2.2,1.8l1.9-1.9v-0.1l-0.9-0.7l-0.1-11.4l0.4-0.2l2,1.2c0,0,0.1,9.2,0.1,10.1c0,0.8-0.5,0.9-0.5,0.9v0.1 l2.6,1.9l2-2.1v-0.1c-0.7,0-1.4-0.6-1.4-0.6S216.3,355.3,216.3,354.7z M190,352.1l0,0.1c0.7,0.1,1.3,0.8,1.3,0.8s-1.4,9.7-1.5,10.3 c-0.1,0.6-0.5,0.7-0.5,0.7l0,0.1l2.2,2.4c0,0,0.6-0.7,2.4-1.7l0-0.1c0,0-1.4-0.2-1.3-1c0.1-0.6,1.3-9.3,1.5-10.1 c0.1-0.8,0.6-0.8,0.6-0.8l0-0.1l-2.3-2.3L190,352.1z M199,364.9l1-11.6l0.1-0.1l2.2,1.6l-0.9,11l-0.7,0.3L199,364.9z M204.2,365.1 c0,0,0.8-9.3,0.8-9.9c0.1-0.6,0.6-0.8,0.6-0.8l0-0.1l-3.5-2.8l-4.9,2.7c0,0-0.8,10.2-0.9,10.8c-0.1,0.6-0.5,0.8-0.5,0.8v0.1 c2.7,2.1,4.9,4.1,7.6,6.5c0,0,0.7-0.9,2.3-2l0-0.1c-0.7-0.1-4.6-3.5-4.6-3.5L204.2,365.1z M185.8,362.7c0.1-0.6,1.8-9.2,1.9-10 c0.2-0.8,0.6-0.8,0.6-0.8l0-0.1l-2.2-2.4l-2.4,1.6l0,0.1c0.7,0.1,1.3,0.8,1.3,0.8s-1.9,9.6-2,10.2c-0.1,0.5-0.5,0.7-0.5,0.7l0,0.1 l2.1,2.5c0,0,0.7-0.7,2.5-1.6l0-0.1C187.1,363.7,185.7,363.5,185.8,362.7z M287.4,195.4l1.7,2.7l1.7-2.7l-1.7-2.7L287.4,195.4z M187.7,369.4c0,0.5,0.5,1.8,0.5,1.8l2.9-2.4c0,0,0-0.9,0-1.2C190,368,187.7,369.4,187.7,369.4z M303,198.1l1.7-2.7l-1.7-2.7 l-1.7,2.7L303,198.1z M344,221.9c0.7-0.8,1.8-2.9,2-3.4l4,2.7l-0.6,1.2l-5.2-0.1L344,221.9z M352,220l4.7,0.1l0.1,0.2 c0,0-2,2.1-2.6,3.3l-3.1-2.3L352,220z M349.6,225.1c0.6,0,0.8,0.4,0.8,0.4l0.1,0l1.4-2.9l4,2.8c0.3-0.7,1.8-2.7,2.5-3.3 c-1-1.4-2-4.8-2-4.8s-3.7-0.1-4.3-0.1c-0.6,0-0.8-0.5-0.8-0.5h-0.1l-1.8,3.2l-5-3.4c0,0.6-1.5,3.3-2,3.7c0.4,0.4,2.2,3.8,2.4,4.7 C344.8,225,349.1,225.1,349.6,225.1z M342.3,192l10.3-2.1c-0.1,0.3-0.4,1.6-0.3,2.5l-9.7,1.9l-1-0.8L342.3,192z M342.7,198.7l0.1,0 c-0.1-0.6,0-1.5,0.2-1.5c0,0,9.8-2,10.5-2.1c0.6-0.1,0.9,0.3,0.9,0.3l0.1,0c0,0,0.2-3.4,0.4-3.8c-1.9-0.7-2.3-4.4-4.9-3.9 c0,0-7.8,1.6-8.4,1.7c-0.5,0.1-0.8-0.2-0.8-0.2l-0.1,0l-1.4,3.4l2.2,1.8l-1.3,2.8C340.2,197,341.2,197.5,342.7,198.7z M338.9,180.8 l-0.1,0c-0.2,1.4-0.6,3-1.1,4.3l3.3,1.8l0.3-0.5c-1.2-0.5-0.9-1.1-0.5-2.7l9.4-2.6l0.6,2.1l1.5,0.2l-0.8-2.7l4-1.1l-0.1-0.3 c-2.2-0.2-4.3-0.9-5.7-2.1l-0.5,0.2l0.3,1.1c0,0-9,2.5-9.6,2.7C339.2,181.2,338.9,180.8,338.9,180.8z M355.1,209.4 c-0.6,0-9.3,0.5-10.2,0.5c-0.8,0-0.9-0.4-0.9-0.4l-0.1,0l-1.8,2.7l2.2,1.9l0.1,0c0-0.7,0.5-1.4,0.5-1.4s9.8-0.5,10.4-0.5 c0.6,0,0.8,0.4,0.8,0.4l0.1,0l1.9-2.6c0,0-0.8-0.5-2.1-2h-0.1C355.8,207.9,355.9,209.4,355.1,209.4z M259.7,195.4l1.7,2.7l1.7-2.7 l-1.7-2.7L259.7,195.4z M260.3,268.1l0,1.6l4-2.6l1.7,2.1l-4.6,3.5l0.8,1.2l4.8-3.6l1.1,1.3l-1.8,1.6l1,1l3-2.4l-1.4-1.7l2.6-2.4 l-1.2-3.6l0.9-0.6v-0.9h-2.4l1.4,4.5l-0.9,0.7l-1.6-2v-4.4l-3.7,0v1.3l0.8,0.9l-0.8,0.6l-2.4-2.8h-1.2v0.7l3.2,3.7L260.3,268.1z M355.6,171l-3.5-1.3c0,0-0.8,0.5-1,0.6c0.9,0.8,3.2,2.1,3.2,2.1C354.7,172.1,355.6,171,355.6,171z M353.6,198.3l0.1,1.1 c0,0-9.3,1.2-9.9,1.3c-0.6,0.1-0.9-0.4-0.9-0.4l-0.1,0c-0.4,1.4-1,2.9-1.7,4.1l3,2.2l0.3-0.5c-1.1-0.7-0.8-1.2-0.1-2.8l9.7-1.3 l0.3,2.2l1.4,0.4l-0.4-2.8l4.2-0.5l0-0.3c-2.2-0.5-4.1-1.5-5.4-2.9L353.6,198.3z M277.1,195.4l-1.7-2.7l-1.7,2.7l1.7,2.7 L277.1,195.4z M251.3,78.8l-3.8-1.1l-1.3,4.3l-4.3-1.3l-1.1,3.9l4.3,1.3l-1.3,4.3l3.8,1.1l1.3-4.3l4.3,1.3l1.1-3.8l-4.3-1.3 L251.3,78.8z M206.1,107.4l-1.7-2.7l-1.7,2.7l1.7,2.7L206.1,107.4z M198.3,303.1c-0.3,7.3-1.2,14.7-4.1,18l1.3,1.1 c3.5-4.1,4.2-11.6,4.5-19.1c0.3-7.4,0.1-14.8,1.1-17.8l-1.7-0.5C198.4,288.5,198.7,295.8,198.3,303.1z M196.5,284.7 c-1.5,9-3,22.9-9.4,34.6l1.5,0.8c6.6-12.1,8.2-26.3,9.6-35.2L196.5,284.7z M220.1,290.3c-1.2,4.1-4,12.8-12,20.5 c-1.1-4.2-2.1-9.3-2.9-13.6c-0.9-4.4-1.5-8.1-1.6-9.2c1.1,3.7,3.6,7.8,6.1,10l1.1-1.3c-1-0.9-2-2.2-3-3.7c0.9,0.3,1.9,0.4,2.8,0.4 c3,0,6.2-1,7.8-2.6l-1.2-1.2c-1.1,1.1-4,2.2-6.6,2.1c-1.8,0-3.4-0.5-4.3-1.4c-0.6-1.2-1-2.4-1.3-3.5c0.2,0.1,0.4,0.3,0.6,0.5l0,0 c1.8,1.4,4,2.1,6.1,2.1c2.5,0,5-1,7-2.8c0.5-0.5,1-1,1.4-1.4c0.1-0.1,0.1-0.1,0.2-0.2c0,0.1,0,0.3,0,0.5c0,0.1,0,0.2,0,0.4 C220.5,287,220.3,288.5,220.1,290.3z M215,308.1c-1.7,3.4-3.7,6.6-5.2,8.3c-0.3-1-0.7-2.2-1.1-3.5c0,0,0-0.1,0-0.1 c4.9-4.4,8-9.3,10-13.5C218,301.4,216.6,304.8,215,308.1z M214.8,318c-0.4,1.5-1.3,2.1-2.1,2.1c-0.5,0-1.2-0.3-1.8-1.2 c-0.1-0.2-0.3-0.5-0.5-0.9c2-1.8,4.1-5.4,6.1-9.2c0.2-0.3,0.3-0.7,0.5-1C216,312.9,215.1,317.1,214.8,318z M222.2,285.5 c0-0.7-0.1-1.2-0.3-1.6c-0.1-0.4-0.6-0.9-1.2-0.9c-0.8,0.1-1.2,0.5-1.7,0.9c-0.5,0.4-0.9,0.9-1.4,1.4c-1.7,1.6-3.8,2.4-5.8,2.4 c-1.8,0-3.5-0.6-5-1.7c-1.1-0.9-2-1.6-3-1.6c-0.7,0-1.4,0.5-1.6,1.1c-0.3,0.6-0.3,1.3-0.3,2.2v0.2c0,0.6,0.3,2.4,0.8,5.1 c0.7,4.1,1.9,10.1,3.1,15.4c0.6,2.7,1.3,5.1,1.9,7.2c0.6,2,1.2,3.6,1.9,4.6c0.8,1.2,2,1.9,3.2,1.9h0c1.7,0,3.2-1.4,3.8-3.4 c0.4-1.6,2.6-11.5,4.2-20.3c0,0,0-0.1,0-0.1c0.5-2.6,0.9-5.2,1.1-7.4c0,0,0,0,0,0h0c0.2-1.9,0.4-3.5,0.4-4.7 C222.2,285.8,222.2,285.6,222.2,285.5z M206,222.5c-1.5,0-2.1,0.6-2.1,1.2c0.4,0,1.1,0,1.8,0c-0.2,0.1-0.4,0.3-0.4,0.5 c0,0.3,0.3,0.6,0.7,0.6c0.4,0,0.7-0.3,0.7-0.6c0-0.2-0.2-0.4-0.4-0.5c0.6,0,1.2,0,1.7,0C208,223.2,207.1,222.5,206,222.5z M202.7,136h1.8v-1.8h1.8v-1.8h-1.8v-1.8h-1.8v1.8h-1.8v1.8h1.8V136z M208.9,136h1.8v-1.8h1.8v-1.8h-1.8v-1.8h-1.8v1.8h-1.8v1.8h1.8 V136z M215,136h1.8v-1.8h1.8v-1.8h-1.8v-1.8H215v1.8h-1.8v1.8h1.8V136z M245.7,227.6h1.8v-1.4h1.4v-1.8h-1.4v-1.4h-1.8v1.4h-1.4v1.8 h1.4V227.6z M246.5,222c1.9,0,3.4,1.5,3.4,3.4c0,1.9-1.5,3.4-3.4,3.4c-1.9,0-3.4-1.5-3.4-3.4C243.2,223.5,244.7,222,246.5,222z M246.5,229.6c2.3,0,4.3-1.9,4.3-4.3c0-2.4-1.9-4.3-4.3-4.3c-2.4,0-4.3,1.9-4.3,4.3C242.3,227.7,244.2,229.6,246.5,229.6z M248.3,167.7l-1.7-2.7l-1.7,2.7l1.7,2.7L248.3,167.7z M227.5,284.7L227.5,284.7L227.5,284.7L227.5,284.7z M213.9,222.6 c-1.5,0-2.1,0.6-2.1,1.2c0.4,0,1.1,0,1.8,0c-0.2,0.1-0.4,0.3-0.4,0.5c0,0.3,0.3,0.6,0.7,0.6c0.4,0,0.7-0.3,0.7-0.6 c0-0.2-0.1-0.4-0.4-0.5c0.6,0,1.2,0,1.7,0C215.9,223.3,215,222.6,213.9,222.6z M212.5,220.8c-1.8,0.8-2.2,2.5-2.2,3 c0,0.6,0,2.2,0,2.2h0.8c0,0,0-1.6,0-2.1c0-1,1.1-2.5,2.7-2.5c1.6,0,2.5,1.4,2.5,1.4l0.6-0.6C216.1,221.1,214.2,220,212.5,220.8z M207.2,220.8c-1.8-0.8-3.7,0.4-4.4,1.4l0.6,0.6c0,0,0.9-1.4,2.5-1.4c1.6,0,2.7,1.5,2.7,2.5c0,0.4,0,2.1,0,2.1h0.8c0,0,0-1.6,0-2.2 C209.4,223.2,208.9,221.6,207.2,220.8z M224.8,290.6c1.9,12.7,2.4,24.7,3.8,30.9l1.7-0.4c-1.4-5.9-1.8-18-3.8-30.8L224.8,290.6z M185.5,136h1.8v-1.8h1.8v-1.8h-1.8v-1.8h-1.8v1.8h-1.8v1.8h1.8V136z M223.3,238.2h1.8v-1.4h1.4v-1.7H225v-1.4h-1.8v1.4h-1.4v1.7 h1.4V238.2z M192.2,136h1.8v-1.8h1.8v-1.8H194v-1.8h-1.8v1.8h-1.8v1.8h1.8V136z"></path> </svg> 